<svg width="64" height="64" viewBox="0 0 64 64" fill="none" xmlns="http://www.w3.org/2000/svg">
<path fill-rule="evenodd" clip-rule="evenodd" d="M14 0C6.26801 0 0 6.26801 0 14V50C0 57.732 6.26801 64 14 64H50C57.732 64 64 57.732 64 50V14C64 6.26801 57.732 0 50 0H14ZM31.5 14.8855H40.3072C42.0589 14.8855 43.0703 15.2557 43.8106 15.5267C43.9461 15.5763 44.0726 15.6226 44.1928 15.6627C44.409 15.7708 44.6139 15.8676 44.8099 15.9602L44.8101 15.9603C45.5533 16.3114 46.1682 16.602 46.7831 17.2169C47.5602 17.994 48.0783 18.7711 48.3374 19.8072C48.5964 20.5843 48.8554 21.6205 49.1145 23.6928V32.5V41.3072C49.1145 43.0589 48.7443 44.0703 48.4733 44.8106L48.4733 44.8107C48.4237 44.9461 48.3774 45.0726 48.3374 45.1928C48.2292 45.409 48.1324 45.614 48.0397 45.8101C47.6886 46.5533 47.3981 47.1682 46.7831 47.7831C46.006 48.5602 45.2289 49.0783 44.1928 49.3374C43.4157 49.5964 42.3795 49.8554 40.3072 50.1145H31.5H22.6928C20.9411 50.1145 19.9297 49.7443 19.1894 49.4733L19.1894 49.4733C19.0539 49.4237 18.9275 49.3774 18.8072 49.3374C18.591 49.2292 18.386 49.1324 18.1899 49.0397C17.4467 48.6886 16.8318 48.3981 16.2169 47.7831C15.4398 47.006 14.9217 46.2289 14.6627 45.1928C14.4036 44.4157 14.1446 43.3795 13.8855 41.3072V32.5V23.6928C13.8855 21.9411 14.2557 20.9297 14.5267 20.1894C14.5763 20.0539 14.6226 19.9275 14.6627 19.8072C14.7708 19.591 14.8676 19.386 14.9602 19.19L14.9602 19.19C15.3114 18.4467 15.602 17.8318 16.2169 17.2169C16.994 16.4398 17.7711 15.9217 18.8072 15.6627C19.5843 15.4036 20.6205 15.1446 22.6928 14.8855H31.5ZM31.5 11H22.6928C20.3614 11 18.8072 11.5181 17.5121 12.0361C16.2169 12.5542 14.9217 13.3313 13.6265 14.6265C12.3313 15.9217 11.8133 16.9578 11.0361 18.5121C10.5181 19.8072 10.259 21.3614 10 23.6928V32.5V41.3072C10 43.6386 10.5181 45.1928 11.0361 46.488C11.5542 47.7831 12.3313 49.0783 13.6265 50.3735C14.9217 51.6687 15.9578 52.1868 17.5121 52.9639C18.8072 53.4819 20.3614 53.741 22.6928 54H31.5H40.3072C42.6386 54 44.1928 53.4819 45.488 52.9639C46.7831 52.4458 48.0783 51.6687 49.3735 50.3735C50.6687 49.0783 51.1868 48.0422 51.9639 46.488C52.4819 45.1928 52.741 43.6386 53 41.3072V32.5V23.6928C53 21.3614 52.4819 19.8072 51.9639 18.5121C51.4458 17.2169 50.6687 15.9217 49.3735 14.6265C48.0783 13.3313 47.0422 12.8133 45.488 12.0361C44.1928 11.5181 42.6386 11.259 40.3072 11H31.5ZM31.5 21.3614C25.2831 21.3614 20.3614 26.2831 20.3614 32.5C20.3614 38.7169 25.2831 43.6386 31.5 43.6386C37.7169 43.6386 42.6386 38.7169 42.6386 32.5C42.6386 26.2831 37.7169 21.3614 31.5 21.3614ZM31.5 39.753C27.6145 39.753 24.247 36.6446 24.247 32.5C24.247 28.6145 27.3554 25.247 31.5 25.247C35.3855 25.247 38.753 28.3554 38.753 32.5C38.753 36.3855 35.3855 39.753 31.5 39.753ZM45.488 21.1024C45.488 22.533 44.3282 23.6928 42.8976 23.6928C41.467 23.6928 40.3072 22.533 40.3072 21.1024C40.3072 19.6718 41.467 18.5121 42.8976 18.5121C44.3282 18.5121 45.488 19.6718 45.488 21.1024Z" fill="#AA0019"/>
</svg>
