<svg width="64" height="64" viewBox="0 0 64 64" fill="none" xmlns="http://www.w3.org/2000/svg">
<path fill-rule="evenodd" clip-rule="evenodd" d="M14 0C6.26801 0 0 6.26801 0 14V50C0 57.732 6.26801 64 14 64H50C57.732 64 64 57.732 64 50V14C64 6.26801 57.732 0 50 0H14ZM42.9481 48.4979L48.8008 18.9637C48.8008 16.9979 46.1 18.1857 46.1 18.1857L13.24 31.0892C13.24 31.0892 11.6841 31.6212 11.8078 32.6049C11.9298 33.5869 13.1983 34.0386 13.1983 34.0386L21.2587 36.7533L42.1517 23.4722C43.2628 22.7971 43.8569 23.3291 42.8999 24.2228C42.2818 24.7998 28.1374 37.5296 26.3134 39.1691L26.376 39.1996L39.8797 49.5635C42.1292 50.5456 42.9481 48.4979 42.9481 48.4979Z" fill="#AA0019"/>
</svg>
