<svg width="64" height="64" viewBox="0 0 64 64" fill="none" xmlns="http://www.w3.org/2000/svg">
<g clip-path="url(#clip0_73_1727)">
<path fill-rule="evenodd" clip-rule="evenodd" d="M64 0H0V64H64V0ZM47.544 20.3102C48.7666 20.8166 50.077 21.0773 51.4004 21.0772L51.3996 28.2766C47.7299 28.282 44.1547 27.1135 41.1966 24.9419L40.9877 39.1924C40.9875 41.8365 40.1807 44.4177 38.675 46.5912C37.1692 48.7647 35.0362 50.4271 32.5608 51.3564C30.0854 52.2858 27.3854 52.4378 24.8213 51.7922C22.2572 51.1466 19.9511 49.7342 18.2109 47.7434C16.4707 45.7527 15.3792 43.2784 15.0822 40.6511C14.7853 38.0237 15.2969 35.3682 16.5488 33.0393C17.8008 30.7103 19.7334 28.8187 22.0887 27.6171C24.444 26.4155 27.1099 25.961 29.7303 26.3143V33.3128C28.4972 32.9498 27.1812 32.9841 25.9688 33.4107C24.7563 33.8374 23.7089 34.6349 22.9749 35.6901C22.241 36.7453 21.8578 38.0048 21.8797 39.2899C21.9015 40.5751 22.3273 41.8208 23.0966 42.8505C23.866 43.8801 24.9399 44.6415 26.1662 45.0268C27.3924 45.412 28.7088 45.4015 29.9288 44.9968C31.1488 44.5921 32.2104 43.8137 32.9633 42.7719C33.7162 41.7301 34.122 40.4778 34.1234 39.1924V11H41.323C41.323 12.3234 41.5837 13.6338 42.0901 14.8564C42.5966 16.0791 43.3388 17.19 44.2746 18.1257C45.2104 19.0615 46.3213 19.8038 47.544 20.3102Z" fill="#AA0019"/>
</g>
<defs>
<clipPath id="clip0_73_1727">
<rect width="64" height="64" rx="14" fill="white"/>
</clipPath>
</defs>
</svg>
