<svg width="64" height="64" viewBox="0 0 64 64" fill="none" xmlns="http://www.w3.org/2000/svg">
<path fill-rule="evenodd" clip-rule="evenodd" d="M14 0C6.26758 0 0 6.26758 0 14V50C0 57.7324 6.26758 64 14 64H50C57.7324 64 64 57.7324 64 50V14C64 6.26758 57.7324 0 50 0H14ZM10.8008 19.6328C11.1504 36.498 19.5293 46.6328 34.2207 46.6328H35.0547V36.9844C37.6445 37.3125 40.082 38.4023 42.0605 40.1191C44.0391 41.8359 45.4688 44.1016 46.1738 46.6328H53.8008C53.0176 43.7188 51.627 41.0059 49.7246 38.6719C47.8223 36.3379 45.4492 34.4355 42.7617 33.0918C45.1699 31.6211 47.248 29.668 48.8711 27.3516C49.6641 26.2188 50.3398 25.0117 50.8887 23.75C51.4629 22.4297 51.9004 21.0508 52.1895 19.6328H45.2598C43.7559 24.9844 39.2969 29.8496 35.0547 30.3086V19.6328H28.125V38.3359C23.8262 37.2539 18.4023 32.0117 18.1602 19.6328H10.8008Z" fill="#AA0019"/>
</svg>
