<svg width="397" height="405" viewBox="0 0 397 405" fill="none" xmlns="http://www.w3.org/2000/svg">
<g filter="url(#filter0_f_1_397)">
<path d="M122.522 373.535C102.553 368.965 84.6742 359.401 70.0812 345.079C23.998 299.85 15.0374 210.195 51.6052 160.633C57.0243 153.283 85.9542 116.912 122.906 122.66C137.115 124.921 146.886 132.412 150.087 134.909C160.37 142.871 167.282 152.859 171.891 162.8C193.738 133.778 218.955 108.338 247.16 86.8543C276.431 64.57 308.433 46.997 342.356 34.6535L357.802 29L368 63.1095L352.554 68.7631C321.576 80.0701 292.347 96.0884 265.636 116.441C231.457 142.447 202.101 174.908 178.291 212.833L148.678 203.364C148.508 198.935 146.886 176.274 131.44 164.307C129.648 162.894 124.869 159.219 118.34 158.183C102.041 155.639 84.5888 172.741 76.823 183.247C53.6534 214.671 55.9149 283.078 91.672 318.177C122.906 348.848 166.685 340.65 184.052 335.703C217.462 326.186 240.333 305.787 244.941 291.417C250.232 274.834 245.794 256.789 245.581 255.989C242.253 243.786 235.639 235.212 230.689 230.124L218.785 217.922C220.619 213.917 223.478 208.735 227.831 203.458C232.524 197.805 237.303 194.035 240.887 191.633C244.856 195.684 248.824 199.783 252.792 203.835C264.1 215.425 272.378 229.888 276.687 245.624H276.602C279.418 255.376 283.088 279.78 275.578 303.29C266.361 332.264 233.591 358.6 192.159 370.425C167.624 377.445 143.857 378.293 122.479 373.44L122.522 373.535Z" fill="#CA2B43"/>
</g>
<defs>
<filter id="filter0_f_1_397" x="0.799999" y="0.799999" width="395.4" height="403.903" filterUnits="userSpaceOnUse" color-interpolation-filters="sRGB">
<feFlood flood-opacity="0" result="BackgroundImageFix"/>
<feBlend mode="normal" in="SourceGraphic" in2="BackgroundImageFix" result="shape"/>
<feGaussianBlur stdDeviation="14.1" result="effect1_foregroundBlur_1_397"/>
</filter>
</defs>
</svg>
