<svg width="4241" height="78" viewBox="0 0 4241 78" fill="none" xmlns="http://www.w3.org/2000/svg">
<rect width="4241" height="78" fill="white"/>
<path d="M34.84 53.84V34.592H23.8L23.56 39.488C23.496 41.088 23.384 42.64 23.224 44.144C23.096 45.616 22.872 46.976 22.552 48.224C22.264 49.472 21.832 50.496 21.256 51.296C20.68 52.096 19.912 52.592 18.952 52.784L14.392 51.968C15.384 52 16.184 51.68 16.792 51.008C17.4 50.304 17.864 49.344 18.184 48.128C18.536 46.912 18.792 45.536 18.952 44C19.112 42.432 19.24 40.816 19.336 39.152L19.72 30.56H39.448V53.84H34.84ZM13.384 61.904V51.968H43.336V61.904H39.016V56H17.752V61.904H13.384ZM60.667 56.288C57.947 56.288 55.547 55.728 53.467 54.608C51.419 53.488 49.819 51.952 48.667 50C47.547 48.048 46.987 45.808 46.987 43.28C46.987 40.752 47.531 38.512 48.619 36.56C49.739 34.608 51.259 33.088 53.179 32C55.131 30.88 57.323 30.32 59.755 30.32C62.219 30.32 64.395 30.864 66.283 31.952C68.171 33.04 69.643 34.576 70.699 36.56C71.787 38.512 72.331 40.8 72.331 43.424C72.331 43.616 72.315 43.84 72.283 44.096C72.283 44.352 72.267 44.592 72.235 44.816H50.587V41.504H69.835L67.963 42.656C67.995 41.024 67.659 39.568 66.955 38.288C66.251 37.008 65.275 36.016 64.027 35.312C62.811 34.576 61.387 34.208 59.755 34.208C58.155 34.208 56.731 34.576 55.483 35.312C54.235 36.016 53.259 37.024 52.555 38.336C51.851 39.616 51.499 41.088 51.499 42.752V43.52C51.499 45.216 51.883 46.736 52.651 48.08C53.451 49.392 54.555 50.416 55.963 51.152C57.371 51.888 58.987 52.256 60.811 52.256C62.315 52.256 63.675 52 64.891 51.488C66.139 50.976 67.227 50.208 68.155 49.184L70.699 52.16C69.547 53.504 68.107 54.528 66.379 55.232C64.683 55.936 62.779 56.288 60.667 56.288ZM90.5676 56.288C87.9756 56.288 85.6556 55.728 83.6076 54.608C81.5916 53.488 80.0076 51.952 78.8556 50C77.7036 48.048 77.1276 45.808 77.1276 43.28C77.1276 40.752 77.7036 38.512 78.8556 36.56C80.0076 34.608 81.5916 33.088 83.6076 32C85.6556 30.88 87.9756 30.32 90.5676 30.32C92.8716 30.32 94.9196 30.784 96.7116 31.712C98.5356 32.608 99.9436 33.952 100.936 35.744L97.4316 38C96.5996 36.752 95.5756 35.84 94.3596 35.264C93.1756 34.656 91.8956 34.352 90.5196 34.352C88.8556 34.352 87.3676 34.72 86.0556 35.456C84.7436 36.192 83.7036 37.232 82.9356 38.576C82.1676 39.888 81.7836 41.456 81.7836 43.28C81.7836 45.104 82.1676 46.688 82.9356 48.032C83.7036 49.376 84.7436 50.416 86.0556 51.152C87.3676 51.888 88.8556 52.256 90.5196 52.256C91.8956 52.256 93.1756 51.968 94.3596 51.392C95.5756 50.784 96.5996 49.856 97.4316 48.608L100.936 50.816C99.9436 52.576 98.5356 53.936 96.7116 54.896C94.9196 55.824 92.8716 56.288 90.5676 56.288ZM117.855 56.288C115.135 56.288 112.735 55.728 110.655 54.608C108.607 53.488 107.007 51.952 105.855 50C104.735 48.048 104.175 45.808 104.175 43.28C104.175 40.752 104.719 38.512 105.807 36.56C106.927 34.608 108.447 33.088 110.367 32C112.319 30.88 114.511 30.32 116.943 30.32C119.407 30.32 121.583 30.864 123.471 31.952C125.359 33.04 126.831 34.576 127.887 36.56C128.975 38.512 129.519 40.8 129.519 43.424C129.519 43.616 129.503 43.84 129.471 44.096C129.471 44.352 129.455 44.592 129.423 44.816H107.775V41.504H127.023L125.151 42.656C125.183 41.024 124.847 39.568 124.143 38.288C123.439 37.008 122.463 36.016 121.215 35.312C119.999 34.576 118.575 34.208 116.943 34.208C115.343 34.208 113.919 34.576 112.671 35.312C111.423 36.016 110.447 37.024 109.743 38.336C109.039 39.616 108.687 41.088 108.687 42.752V43.52C108.687 45.216 109.071 46.736 109.839 48.08C110.639 49.392 111.743 50.416 113.151 51.152C114.559 51.888 116.175 52.256 117.999 52.256C119.503 52.256 120.863 52 122.079 51.488C123.327 50.976 124.415 50.208 125.343 49.184L127.887 52.16C126.735 53.504 125.295 54.528 123.567 55.232C121.871 55.936 119.967 56.288 117.855 56.288ZM150.155 56.288C148.043 56.288 146.107 55.808 144.347 54.848C142.619 53.856 141.227 52.4 140.171 50.48C139.147 48.56 138.635 46.16 138.635 43.28C138.635 40.4 139.131 38 140.123 36.08C141.147 34.16 142.523 32.72 144.251 31.76C146.011 30.8 147.979 30.32 150.155 30.32C152.651 30.32 154.859 30.864 156.779 31.952C158.699 33.04 160.219 34.56 161.339 36.512C162.459 38.432 163.019 40.688 163.019 43.28C163.019 45.872 162.459 48.144 161.339 50.096C160.219 52.048 158.699 53.568 156.779 54.656C154.859 55.744 152.651 56.288 150.155 56.288ZM136.667 65.312V30.56H141.083V37.424L140.795 43.328L141.275 49.232V65.312H136.667ZM149.771 52.256C151.403 52.256 152.859 51.888 154.139 51.152C155.451 50.416 156.475 49.376 157.211 48.032C157.979 46.656 158.363 45.072 158.363 43.28C158.363 41.456 157.979 39.888 157.211 38.576C156.475 37.232 155.451 36.192 154.139 35.456C152.859 34.72 151.403 34.352 149.771 34.352C148.171 34.352 146.715 34.72 145.403 35.456C144.123 36.192 143.099 37.232 142.331 38.576C141.595 39.888 141.227 41.456 141.227 43.28C141.227 45.072 141.595 46.656 142.331 48.032C143.099 49.376 144.123 50.416 145.403 51.152C146.715 51.888 148.171 52.256 149.771 52.256ZM173.817 56V33.392L174.969 34.592H164.505V30.56H187.737V34.592H177.321L178.424 33.392V56H173.817ZM210.379 56V33.392L211.531 34.592H201.067V30.56H224.299V34.592H213.883L214.987 33.392V56H210.379ZM229.011 56V30.56H240.819C243.795 30.56 246.131 31.136 247.827 32.288C249.555 33.408 250.419 35.008 250.419 37.088C250.419 39.168 249.603 40.784 247.971 41.936C246.371 43.056 244.243 43.616 241.587 43.616L242.307 42.368C245.347 42.368 247.603 42.928 249.075 44.048C250.547 45.168 251.283 46.816 251.283 48.992C251.283 51.2 250.451 52.928 248.787 54.176C247.155 55.392 244.643 56 241.251 56H229.011ZM233.523 52.448H240.915C242.835 52.448 244.275 52.16 245.235 51.584C246.195 50.976 246.675 50.016 246.675 48.704C246.675 47.36 246.227 46.384 245.331 45.776C244.467 45.136 243.091 44.816 241.203 44.816H233.523V52.448ZM233.523 41.504H240.435C242.195 41.504 243.523 41.184 244.419 40.544C245.347 39.872 245.811 38.944 245.811 37.76C245.811 36.544 245.347 35.632 244.419 35.024C243.523 34.416 242.195 34.112 240.435 34.112H233.523V41.504ZM269.391 56.288C266.831 56.288 264.559 55.728 262.575 54.608C260.591 53.488 259.023 51.952 257.871 50C256.719 48.016 256.143 45.776 256.143 43.28C256.143 40.752 256.719 38.512 257.871 36.56C259.023 34.608 260.591 33.088 262.575 32C264.559 30.88 266.831 30.32 269.391 30.32C271.919 30.32 274.175 30.88 276.159 32C278.175 33.088 279.743 34.608 280.863 36.56C282.015 38.48 282.591 40.72 282.591 43.28C282.591 45.808 282.015 48.048 280.863 50C279.743 51.952 278.175 53.488 276.159 54.608C274.175 55.728 271.919 56.288 269.391 56.288ZM269.391 52.256C271.023 52.256 272.479 51.888 273.759 51.152C275.071 50.416 276.095 49.376 276.831 48.032C277.567 46.656 277.935 45.072 277.935 43.28C277.935 41.456 277.567 39.888 276.831 38.576C276.095 37.232 275.071 36.192 273.759 35.456C272.479 34.72 271.023 34.352 269.391 34.352C267.759 34.352 266.303 34.72 265.023 35.456C263.743 36.192 262.719 37.232 261.951 38.576C261.183 39.888 260.799 41.456 260.799 43.28C260.799 45.072 261.183 46.656 261.951 48.032C262.719 49.376 263.743 50.416 265.023 51.152C266.303 51.888 267.759 52.256 269.391 52.256ZM300.573 56.288C297.853 56.288 295.453 55.728 293.373 54.608C291.325 53.488 289.725 51.952 288.573 50C287.453 48.048 286.893 45.808 286.893 43.28C286.893 40.752 287.437 38.512 288.525 36.56C289.645 34.608 291.165 33.088 293.085 32C295.037 30.88 297.229 30.32 299.661 30.32C302.125 30.32 304.301 30.864 306.189 31.952C308.077 33.04 309.549 34.576 310.605 36.56C311.693 38.512 312.237 40.8 312.237 43.424C312.237 43.616 312.221 43.84 312.189 44.096C312.189 44.352 312.173 44.592 312.141 44.816H290.493V41.504H309.741L307.869 42.656C307.901 41.024 307.565 39.568 306.861 38.288C306.157 37.008 305.181 36.016 303.933 35.312C302.717 34.576 301.293 34.208 299.661 34.208C298.061 34.208 296.637 34.576 295.389 35.312C294.141 36.016 293.165 37.024 292.461 38.336C291.757 39.616 291.405 41.088 291.405 42.752V43.52C291.405 45.216 291.789 46.736 292.557 48.08C293.357 49.392 294.461 50.416 295.869 51.152C297.277 51.888 298.893 52.256 300.717 52.256C302.221 52.256 303.581 52 304.797 51.488C306.045 50.976 307.133 50.208 308.061 49.184L310.605 52.16C309.453 53.504 308.013 54.528 306.285 55.232C304.589 55.936 302.685 56.288 300.573 56.288ZM319.386 56V30.56H323.994V49.088L339.594 30.56H343.77V56H339.162V37.472L323.61 56H319.386ZM331.29 27.248C328.954 27.248 327.114 26.688 325.77 25.568C324.458 24.416 323.786 22.768 323.754 20.624H326.874C326.906 21.84 327.306 22.8 328.074 23.504C328.874 24.208 329.93 24.56 331.242 24.56C332.554 24.56 333.61 24.208 334.41 23.504C335.21 22.8 335.626 21.84 335.658 20.624H338.874C338.842 22.768 338.154 24.416 336.81 25.568C335.466 26.688 333.626 27.248 331.29 27.248ZM365.605 56V30.56H370.357L381.301 49.376H379.381L390.613 30.56H394.933V56H390.757V35.744L391.525 36.176L381.253 53.12H379.237L368.917 35.84L369.829 35.648V56H365.605ZM415.23 56.288C412.51 56.288 410.11 55.728 408.03 54.608C405.982 53.488 404.382 51.952 403.23 50C402.11 48.048 401.55 45.808 401.55 43.28C401.55 40.752 402.094 38.512 403.182 36.56C404.302 34.608 405.822 33.088 407.742 32C409.694 30.88 411.886 30.32 414.318 30.32C416.782 30.32 418.958 30.864 420.846 31.952C422.734 33.04 424.206 34.576 425.262 36.56C426.35 38.512 426.894 40.8 426.894 43.424C426.894 43.616 426.878 43.84 426.846 44.096C426.846 44.352 426.83 44.592 426.798 44.816H405.15V41.504H424.398L422.526 42.656C422.558 41.024 422.222 39.568 421.518 38.288C420.814 37.008 419.838 36.016 418.59 35.312C417.374 34.576 415.95 34.208 414.318 34.208C412.718 34.208 411.294 34.576 410.046 35.312C408.798 36.016 407.822 37.024 407.118 38.336C406.414 39.616 406.062 41.088 406.062 42.752V43.52C406.062 45.216 406.446 46.736 407.214 48.08C408.014 49.392 409.118 50.416 410.526 51.152C411.934 51.888 413.55 52.256 415.374 52.256C416.878 52.256 418.238 52 419.454 51.488C420.702 50.976 421.79 50.208 422.718 49.184L425.262 52.16C424.11 53.504 422.67 54.528 420.942 55.232C419.246 55.936 417.342 56.288 415.23 56.288ZM450.074 45.584C448.73 46.224 447.338 46.736 445.898 47.12C444.49 47.472 443.034 47.648 441.53 47.648C438.458 47.648 436.026 46.928 434.234 45.488C432.474 44.048 431.594 41.824 431.594 38.816V30.56H436.202V38.528C436.202 40.352 436.762 41.696 437.882 42.56C439.034 43.424 440.57 43.856 442.49 43.856C443.706 43.856 444.954 43.696 446.234 43.376C447.546 43.056 448.826 42.608 450.074 42.032V45.584ZM449.738 56V30.56H454.346V56H449.738ZM468.332 56V33.392L469.484 34.592H459.02V30.56H482.252V34.592H471.836L472.94 33.392V56H468.332ZM512.116 56V30.56H516.724V56H512.116ZM498.436 39.2C501.668 39.232 504.116 39.968 505.78 41.408C507.476 42.848 508.324 44.88 508.324 47.504C508.324 50.256 507.396 52.384 505.54 53.888C503.716 55.36 501.092 56.08 497.668 56.048L486.964 56V30.56H491.572V39.152L498.436 39.2ZM497.332 52.544C499.38 52.576 500.948 52.16 502.036 51.296C503.124 50.432 503.668 49.152 503.668 47.456C503.668 45.792 503.124 44.576 502.036 43.808C500.98 43.04 499.412 42.64 497.332 42.608L491.572 42.512V52.496L497.332 52.544Z" fill="#695CF0"/>
<path d="M640.84 53.84V34.592H629.8L629.56 39.488C629.496 41.088 629.384 42.64 629.224 44.144C629.096 45.616 628.872 46.976 628.552 48.224C628.264 49.472 627.832 50.496 627.256 51.296C626.68 52.096 625.912 52.592 624.952 52.784L620.392 51.968C621.384 52 622.184 51.68 622.792 51.008C623.4 50.304 623.864 49.344 624.184 48.128C624.536 46.912 624.792 45.536 624.952 44C625.112 42.432 625.24 40.816 625.336 39.152L625.72 30.56H645.448V53.84H640.84ZM619.384 61.904V51.968H649.336V61.904H645.016V56H623.752V61.904H619.384ZM666.667 56.288C663.947 56.288 661.547 55.728 659.467 54.608C657.419 53.488 655.819 51.952 654.667 50C653.547 48.048 652.987 45.808 652.987 43.28C652.987 40.752 653.531 38.512 654.619 36.56C655.739 34.608 657.259 33.088 659.179 32C661.131 30.88 663.323 30.32 665.755 30.32C668.219 30.32 670.395 30.864 672.283 31.952C674.171 33.04 675.643 34.576 676.699 36.56C677.787 38.512 678.331 40.8 678.331 43.424C678.331 43.616 678.315 43.84 678.283 44.096C678.283 44.352 678.267 44.592 678.235 44.816H656.587V41.504H675.835L673.963 42.656C673.995 41.024 673.659 39.568 672.955 38.288C672.251 37.008 671.275 36.016 670.027 35.312C668.811 34.576 667.387 34.208 665.755 34.208C664.155 34.208 662.731 34.576 661.483 35.312C660.235 36.016 659.259 37.024 658.555 38.336C657.851 39.616 657.499 41.088 657.499 42.752V43.52C657.499 45.216 657.883 46.736 658.651 48.08C659.451 49.392 660.555 50.416 661.963 51.152C663.371 51.888 664.987 52.256 666.811 52.256C668.315 52.256 669.675 52 670.891 51.488C672.139 50.976 673.227 50.208 674.155 49.184L676.699 52.16C675.547 53.504 674.107 54.528 672.379 55.232C670.683 55.936 668.779 56.288 666.667 56.288ZM696.568 56.288C693.976 56.288 691.656 55.728 689.608 54.608C687.592 53.488 686.008 51.952 684.856 50C683.704 48.048 683.128 45.808 683.128 43.28C683.128 40.752 683.704 38.512 684.856 36.56C686.008 34.608 687.592 33.088 689.608 32C691.656 30.88 693.976 30.32 696.568 30.32C698.872 30.32 700.92 30.784 702.712 31.712C704.536 32.608 705.944 33.952 706.936 35.744L703.432 38C702.6 36.752 701.576 35.84 700.36 35.264C699.176 34.656 697.896 34.352 696.52 34.352C694.856 34.352 693.368 34.72 692.056 35.456C690.744 36.192 689.704 37.232 688.936 38.576C688.168 39.888 687.784 41.456 687.784 43.28C687.784 45.104 688.168 46.688 688.936 48.032C689.704 49.376 690.744 50.416 692.056 51.152C693.368 51.888 694.856 52.256 696.52 52.256C697.896 52.256 699.176 51.968 700.36 51.392C701.576 50.784 702.6 49.856 703.432 48.608L706.936 50.816C705.944 52.576 704.536 53.936 702.712 54.896C700.92 55.824 698.872 56.288 696.568 56.288ZM723.855 56.288C721.135 56.288 718.735 55.728 716.655 54.608C714.607 53.488 713.007 51.952 711.855 50C710.735 48.048 710.175 45.808 710.175 43.28C710.175 40.752 710.719 38.512 711.807 36.56C712.927 34.608 714.447 33.088 716.367 32C718.319 30.88 720.511 30.32 722.943 30.32C725.407 30.32 727.583 30.864 729.471 31.952C731.359 33.04 732.831 34.576 733.887 36.56C734.975 38.512 735.519 40.8 735.519 43.424C735.519 43.616 735.503 43.84 735.471 44.096C735.471 44.352 735.455 44.592 735.423 44.816H713.775V41.504H733.023L731.151 42.656C731.183 41.024 730.847 39.568 730.143 38.288C729.439 37.008 728.463 36.016 727.215 35.312C725.999 34.576 724.575 34.208 722.943 34.208C721.343 34.208 719.919 34.576 718.671 35.312C717.423 36.016 716.447 37.024 715.743 38.336C715.039 39.616 714.687 41.088 714.687 42.752V43.52C714.687 45.216 715.071 46.736 715.839 48.08C716.639 49.392 717.743 50.416 719.151 51.152C720.559 51.888 722.175 52.256 723.999 52.256C725.503 52.256 726.863 52 728.079 51.488C729.327 50.976 730.415 50.208 731.343 49.184L733.887 52.16C732.735 53.504 731.295 54.528 729.567 55.232C727.871 55.936 725.967 56.288 723.855 56.288ZM756.155 56.288C754.043 56.288 752.107 55.808 750.347 54.848C748.619 53.856 747.227 52.4 746.171 50.48C745.147 48.56 744.635 46.16 744.635 43.28C744.635 40.4 745.131 38 746.123 36.08C747.147 34.16 748.523 32.72 750.251 31.76C752.011 30.8 753.979 30.32 756.155 30.32C758.651 30.32 760.859 30.864 762.779 31.952C764.699 33.04 766.219 34.56 767.339 36.512C768.459 38.432 769.019 40.688 769.019 43.28C769.019 45.872 768.459 48.144 767.339 50.096C766.219 52.048 764.699 53.568 762.779 54.656C760.859 55.744 758.651 56.288 756.155 56.288ZM742.667 65.312V30.56H747.083V37.424L746.795 43.328L747.275 49.232V65.312H742.667ZM755.771 52.256C757.403 52.256 758.859 51.888 760.139 51.152C761.451 50.416 762.475 49.376 763.211 48.032C763.979 46.656 764.363 45.072 764.363 43.28C764.363 41.456 763.979 39.888 763.211 38.576C762.475 37.232 761.451 36.192 760.139 35.456C758.859 34.72 757.403 34.352 755.771 34.352C754.171 34.352 752.715 34.72 751.403 35.456C750.123 36.192 749.099 37.232 748.331 38.576C747.595 39.888 747.227 41.456 747.227 43.28C747.227 45.072 747.595 46.656 748.331 48.032C749.099 49.376 750.123 50.416 751.403 51.152C752.715 51.888 754.171 52.256 755.771 52.256ZM779.817 56V33.392L780.969 34.592H770.505V30.56H793.737V34.592H783.321L784.424 33.392V56H779.817ZM816.379 56V33.392L817.531 34.592H807.067V30.56H830.299V34.592H819.883L820.987 33.392V56H816.379ZM835.011 56V30.56H846.819C849.795 30.56 852.131 31.136 853.827 32.288C855.555 33.408 856.419 35.008 856.419 37.088C856.419 39.168 855.603 40.784 853.971 41.936C852.371 43.056 850.243 43.616 847.587 43.616L848.307 42.368C851.347 42.368 853.603 42.928 855.075 44.048C856.547 45.168 857.283 46.816 857.283 48.992C857.283 51.2 856.451 52.928 854.787 54.176C853.155 55.392 850.643 56 847.251 56H835.011ZM839.523 52.448H846.915C848.835 52.448 850.275 52.16 851.235 51.584C852.195 50.976 852.675 50.016 852.675 48.704C852.675 47.36 852.227 46.384 851.331 45.776C850.467 45.136 849.091 44.816 847.203 44.816H839.523V52.448ZM839.523 41.504H846.435C848.195 41.504 849.523 41.184 850.419 40.544C851.347 39.872 851.811 38.944 851.811 37.76C851.811 36.544 851.347 35.632 850.419 35.024C849.523 34.416 848.195 34.112 846.435 34.112H839.523V41.504ZM875.391 56.288C872.831 56.288 870.559 55.728 868.575 54.608C866.591 53.488 865.023 51.952 863.871 50C862.719 48.016 862.143 45.776 862.143 43.28C862.143 40.752 862.719 38.512 863.871 36.56C865.023 34.608 866.591 33.088 868.575 32C870.559 30.88 872.831 30.32 875.391 30.32C877.919 30.32 880.175 30.88 882.159 32C884.175 33.088 885.743 34.608 886.863 36.56C888.015 38.48 888.591 40.72 888.591 43.28C888.591 45.808 888.015 48.048 886.863 50C885.743 51.952 884.175 53.488 882.159 54.608C880.175 55.728 877.919 56.288 875.391 56.288ZM875.391 52.256C877.023 52.256 878.479 51.888 879.759 51.152C881.071 50.416 882.095 49.376 882.831 48.032C883.567 46.656 883.935 45.072 883.935 43.28C883.935 41.456 883.567 39.888 882.831 38.576C882.095 37.232 881.071 36.192 879.759 35.456C878.479 34.72 877.023 34.352 875.391 34.352C873.759 34.352 872.303 34.72 871.023 35.456C869.743 36.192 868.719 37.232 867.951 38.576C867.183 39.888 866.799 41.456 866.799 43.28C866.799 45.072 867.183 46.656 867.951 48.032C868.719 49.376 869.743 50.416 871.023 51.152C872.303 51.888 873.759 52.256 875.391 52.256ZM906.573 56.288C903.853 56.288 901.453 55.728 899.373 54.608C897.325 53.488 895.725 51.952 894.573 50C893.453 48.048 892.893 45.808 892.893 43.28C892.893 40.752 893.437 38.512 894.525 36.56C895.645 34.608 897.165 33.088 899.085 32C901.037 30.88 903.229 30.32 905.661 30.32C908.125 30.32 910.301 30.864 912.189 31.952C914.077 33.04 915.549 34.576 916.605 36.56C917.693 38.512 918.237 40.8 918.237 43.424C918.237 43.616 918.221 43.84 918.189 44.096C918.189 44.352 918.173 44.592 918.141 44.816H896.493V41.504H915.741L913.869 42.656C913.901 41.024 913.565 39.568 912.861 38.288C912.157 37.008 911.181 36.016 909.933 35.312C908.717 34.576 907.293 34.208 905.661 34.208C904.061 34.208 902.637 34.576 901.389 35.312C900.141 36.016 899.165 37.024 898.461 38.336C897.757 39.616 897.405 41.088 897.405 42.752V43.52C897.405 45.216 897.789 46.736 898.557 48.08C899.357 49.392 900.461 50.416 901.869 51.152C903.277 51.888 904.893 52.256 906.717 52.256C908.221 52.256 909.581 52 910.797 51.488C912.045 50.976 913.133 50.208 914.061 49.184L916.605 52.16C915.453 53.504 914.013 54.528 912.285 55.232C910.589 55.936 908.685 56.288 906.573 56.288ZM925.386 56V30.56H929.994V49.088L945.594 30.56H949.77V56H945.162V37.472L929.61 56H925.386ZM937.29 27.248C934.954 27.248 933.114 26.688 931.77 25.568C930.458 24.416 929.786 22.768 929.754 20.624H932.874C932.906 21.84 933.306 22.8 934.074 23.504C934.874 24.208 935.93 24.56 937.242 24.56C938.554 24.56 939.61 24.208 940.41 23.504C941.21 22.8 941.626 21.84 941.658 20.624H944.874C944.842 22.768 944.154 24.416 942.81 25.568C941.466 26.688 939.626 27.248 937.29 27.248ZM971.605 56V30.56H976.357L987.301 49.376H985.381L996.613 30.56H1000.93V56H996.757V35.744L997.525 36.176L987.253 53.12H985.237L974.917 35.84L975.829 35.648V56H971.605ZM1021.23 56.288C1018.51 56.288 1016.11 55.728 1014.03 54.608C1011.98 53.488 1010.38 51.952 1009.23 50C1008.11 48.048 1007.55 45.808 1007.55 43.28C1007.55 40.752 1008.09 38.512 1009.18 36.56C1010.3 34.608 1011.82 33.088 1013.74 32C1015.69 30.88 1017.89 30.32 1020.32 30.32C1022.78 30.32 1024.96 30.864 1026.85 31.952C1028.73 33.04 1030.21 34.576 1031.26 36.56C1032.35 38.512 1032.89 40.8 1032.89 43.424C1032.89 43.616 1032.88 43.84 1032.85 44.096C1032.85 44.352 1032.83 44.592 1032.8 44.816H1011.15V41.504H1030.4L1028.53 42.656C1028.56 41.024 1028.22 39.568 1027.52 38.288C1026.81 37.008 1025.84 36.016 1024.59 35.312C1023.37 34.576 1021.95 34.208 1020.32 34.208C1018.72 34.208 1017.29 34.576 1016.05 35.312C1014.8 36.016 1013.82 37.024 1013.12 38.336C1012.41 39.616 1012.06 41.088 1012.06 42.752V43.52C1012.06 45.216 1012.45 46.736 1013.21 48.08C1014.01 49.392 1015.12 50.416 1016.53 51.152C1017.93 51.888 1019.55 52.256 1021.37 52.256C1022.88 52.256 1024.24 52 1025.45 51.488C1026.7 50.976 1027.79 50.208 1028.72 49.184L1031.26 52.16C1030.11 53.504 1028.67 54.528 1026.94 55.232C1025.25 55.936 1023.34 56.288 1021.23 56.288ZM1056.07 45.584C1054.73 46.224 1053.34 46.736 1051.9 47.12C1050.49 47.472 1049.03 47.648 1047.53 47.648C1044.46 47.648 1042.03 46.928 1040.23 45.488C1038.47 44.048 1037.59 41.824 1037.59 38.816V30.56H1042.2V38.528C1042.2 40.352 1042.76 41.696 1043.88 42.56C1045.03 43.424 1046.57 43.856 1048.49 43.856C1049.71 43.856 1050.95 43.696 1052.23 43.376C1053.55 43.056 1054.83 42.608 1056.07 42.032V45.584ZM1055.74 56V30.56H1060.35V56H1055.74ZM1074.33 56V33.392L1075.48 34.592H1065.02V30.56H1088.25V34.592H1077.84L1078.94 33.392V56H1074.33ZM1118.12 56V30.56H1122.72V56H1118.12ZM1104.44 39.2C1107.67 39.232 1110.12 39.968 1111.78 41.408C1113.48 42.848 1114.32 44.88 1114.32 47.504C1114.32 50.256 1113.4 52.384 1111.54 53.888C1109.72 55.36 1107.09 56.08 1103.67 56.048L1092.96 56V30.56H1097.57V39.152L1104.44 39.2ZM1103.33 52.544C1105.38 52.576 1106.95 52.16 1108.04 51.296C1109.12 50.432 1109.67 49.152 1109.67 47.456C1109.67 45.792 1109.12 44.576 1108.04 43.808C1106.98 43.04 1105.41 42.64 1103.33 42.608L1097.57 42.512V52.496L1103.33 52.544Z" fill="#695CF0"/>
<path d="M1246.84 53.84V34.592H1235.8L1235.56 39.488C1235.5 41.088 1235.38 42.64 1235.22 44.144C1235.1 45.616 1234.87 46.976 1234.55 48.224C1234.26 49.472 1233.83 50.496 1233.26 51.296C1232.68 52.096 1231.91 52.592 1230.95 52.784L1226.39 51.968C1227.38 52 1228.18 51.68 1228.79 51.008C1229.4 50.304 1229.86 49.344 1230.18 48.128C1230.54 46.912 1230.79 45.536 1230.95 44C1231.11 42.432 1231.24 40.816 1231.34 39.152L1231.72 30.56H1251.45V53.84H1246.84ZM1225.38 61.904V51.968H1255.34V61.904H1251.02V56H1229.75V61.904H1225.38ZM1272.67 56.288C1269.95 56.288 1267.55 55.728 1265.47 54.608C1263.42 53.488 1261.82 51.952 1260.67 50C1259.55 48.048 1258.99 45.808 1258.99 43.28C1258.99 40.752 1259.53 38.512 1260.62 36.56C1261.74 34.608 1263.26 33.088 1265.18 32C1267.13 30.88 1269.32 30.32 1271.76 30.32C1274.22 30.32 1276.4 30.864 1278.28 31.952C1280.17 33.04 1281.64 34.576 1282.7 36.56C1283.79 38.512 1284.33 40.8 1284.33 43.424C1284.33 43.616 1284.32 43.84 1284.28 44.096C1284.28 44.352 1284.27 44.592 1284.24 44.816H1262.59V41.504H1281.84L1279.96 42.656C1280 41.024 1279.66 39.568 1278.96 38.288C1278.25 37.008 1277.28 36.016 1276.03 35.312C1274.81 34.576 1273.39 34.208 1271.76 34.208C1270.16 34.208 1268.73 34.576 1267.48 35.312C1266.24 36.016 1265.26 37.024 1264.56 38.336C1263.85 39.616 1263.5 41.088 1263.5 42.752V43.52C1263.5 45.216 1263.88 46.736 1264.65 48.08C1265.45 49.392 1266.56 50.416 1267.96 51.152C1269.37 51.888 1270.99 52.256 1272.81 52.256C1274.32 52.256 1275.68 52 1276.89 51.488C1278.14 50.976 1279.23 50.208 1280.16 49.184L1282.7 52.16C1281.55 53.504 1280.11 54.528 1278.38 55.232C1276.68 55.936 1274.78 56.288 1272.67 56.288ZM1302.57 56.288C1299.98 56.288 1297.66 55.728 1295.61 54.608C1293.59 53.488 1292.01 51.952 1290.86 50C1289.7 48.048 1289.13 45.808 1289.13 43.28C1289.13 40.752 1289.7 38.512 1290.86 36.56C1292.01 34.608 1293.59 33.088 1295.61 32C1297.66 30.88 1299.98 30.32 1302.57 30.32C1304.87 30.32 1306.92 30.784 1308.71 31.712C1310.54 32.608 1311.94 33.952 1312.94 35.744L1309.43 38C1308.6 36.752 1307.58 35.84 1306.36 35.264C1305.18 34.656 1303.9 34.352 1302.52 34.352C1300.86 34.352 1299.37 34.72 1298.06 35.456C1296.74 36.192 1295.7 37.232 1294.94 38.576C1294.17 39.888 1293.78 41.456 1293.78 43.28C1293.78 45.104 1294.17 46.688 1294.94 48.032C1295.7 49.376 1296.74 50.416 1298.06 51.152C1299.37 51.888 1300.86 52.256 1302.52 52.256C1303.9 52.256 1305.18 51.968 1306.36 51.392C1307.58 50.784 1308.6 49.856 1309.43 48.608L1312.94 50.816C1311.94 52.576 1310.54 53.936 1308.71 54.896C1306.92 55.824 1304.87 56.288 1302.57 56.288ZM1329.85 56.288C1327.13 56.288 1324.73 55.728 1322.65 54.608C1320.61 53.488 1319.01 51.952 1317.85 50C1316.73 48.048 1316.17 45.808 1316.17 43.28C1316.17 40.752 1316.72 38.512 1317.81 36.56C1318.93 34.608 1320.45 33.088 1322.37 32C1324.32 30.88 1326.51 30.32 1328.94 30.32C1331.41 30.32 1333.58 30.864 1335.47 31.952C1337.36 33.04 1338.83 34.576 1339.89 36.56C1340.97 38.512 1341.52 40.8 1341.52 43.424C1341.52 43.616 1341.5 43.84 1341.47 44.096C1341.47 44.352 1341.45 44.592 1341.42 44.816H1319.77V41.504H1339.02L1337.15 42.656C1337.18 41.024 1336.85 39.568 1336.14 38.288C1335.44 37.008 1334.46 36.016 1333.21 35.312C1332 34.576 1330.57 34.208 1328.94 34.208C1327.34 34.208 1325.92 34.576 1324.67 35.312C1323.42 36.016 1322.45 37.024 1321.74 38.336C1321.04 39.616 1320.69 41.088 1320.69 42.752V43.52C1320.69 45.216 1321.07 46.736 1321.84 48.08C1322.64 49.392 1323.74 50.416 1325.15 51.152C1326.56 51.888 1328.17 52.256 1330 52.256C1331.5 52.256 1332.86 52 1334.08 51.488C1335.33 50.976 1336.41 50.208 1337.34 49.184L1339.89 52.16C1338.73 53.504 1337.29 54.528 1335.57 55.232C1333.87 55.936 1331.97 56.288 1329.85 56.288ZM1362.16 56.288C1360.04 56.288 1358.11 55.808 1356.35 54.848C1354.62 53.856 1353.23 52.4 1352.17 50.48C1351.15 48.56 1350.64 46.16 1350.64 43.28C1350.64 40.4 1351.13 38 1352.12 36.08C1353.15 34.16 1354.52 32.72 1356.25 31.76C1358.01 30.8 1359.98 30.32 1362.16 30.32C1364.65 30.32 1366.86 30.864 1368.78 31.952C1370.7 33.04 1372.22 34.56 1373.34 36.512C1374.46 38.432 1375.02 40.688 1375.02 43.28C1375.02 45.872 1374.46 48.144 1373.34 50.096C1372.22 52.048 1370.7 53.568 1368.78 54.656C1366.86 55.744 1364.65 56.288 1362.16 56.288ZM1348.67 65.312V30.56H1353.08V37.424L1352.8 43.328L1353.28 49.232V65.312H1348.67ZM1361.77 52.256C1363.4 52.256 1364.86 51.888 1366.14 51.152C1367.45 50.416 1368.48 49.376 1369.21 48.032C1369.98 46.656 1370.36 45.072 1370.36 43.28C1370.36 41.456 1369.98 39.888 1369.21 38.576C1368.48 37.232 1367.45 36.192 1366.14 35.456C1364.86 34.72 1363.4 34.352 1361.77 34.352C1360.17 34.352 1358.72 34.72 1357.4 35.456C1356.12 36.192 1355.1 37.232 1354.33 38.576C1353.6 39.888 1353.23 41.456 1353.23 43.28C1353.23 45.072 1353.6 46.656 1354.33 48.032C1355.1 49.376 1356.12 50.416 1357.4 51.152C1358.72 51.888 1360.17 52.256 1361.77 52.256ZM1385.82 56V33.392L1386.97 34.592H1376.5V30.56H1399.74V34.592H1389.32L1390.42 33.392V56H1385.82ZM1422.38 56V33.392L1423.53 34.592H1413.07V30.56H1436.3V34.592H1425.88L1426.99 33.392V56H1422.38ZM1441.01 56V30.56H1452.82C1455.79 30.56 1458.13 31.136 1459.83 32.288C1461.55 33.408 1462.42 35.008 1462.42 37.088C1462.42 39.168 1461.6 40.784 1459.97 41.936C1458.37 43.056 1456.24 43.616 1453.59 43.616L1454.31 42.368C1457.35 42.368 1459.6 42.928 1461.07 44.048C1462.55 45.168 1463.28 46.816 1463.28 48.992C1463.28 51.2 1462.45 52.928 1460.79 54.176C1459.15 55.392 1456.64 56 1453.25 56H1441.01ZM1445.52 52.448H1452.91C1454.83 52.448 1456.27 52.16 1457.23 51.584C1458.19 50.976 1458.67 50.016 1458.67 48.704C1458.67 47.36 1458.23 46.384 1457.33 45.776C1456.47 45.136 1455.09 44.816 1453.2 44.816H1445.52V52.448ZM1445.52 41.504H1452.43C1454.19 41.504 1455.52 41.184 1456.42 40.544C1457.35 39.872 1457.81 38.944 1457.81 37.76C1457.81 36.544 1457.35 35.632 1456.42 35.024C1455.52 34.416 1454.19 34.112 1452.43 34.112H1445.52V41.504ZM1481.39 56.288C1478.83 56.288 1476.56 55.728 1474.58 54.608C1472.59 53.488 1471.02 51.952 1469.87 50C1468.72 48.016 1468.14 45.776 1468.14 43.28C1468.14 40.752 1468.72 38.512 1469.87 36.56C1471.02 34.608 1472.59 33.088 1474.58 32C1476.56 30.88 1478.83 30.32 1481.39 30.32C1483.92 30.32 1486.18 30.88 1488.16 32C1490.18 33.088 1491.74 34.608 1492.86 36.56C1494.02 38.48 1494.59 40.72 1494.59 43.28C1494.59 45.808 1494.02 48.048 1492.86 50C1491.74 51.952 1490.18 53.488 1488.16 54.608C1486.18 55.728 1483.92 56.288 1481.39 56.288ZM1481.39 52.256C1483.02 52.256 1484.48 51.888 1485.76 51.152C1487.07 50.416 1488.1 49.376 1488.83 48.032C1489.57 46.656 1489.94 45.072 1489.94 43.28C1489.94 41.456 1489.57 39.888 1488.83 38.576C1488.1 37.232 1487.07 36.192 1485.76 35.456C1484.48 34.72 1483.02 34.352 1481.39 34.352C1479.76 34.352 1478.3 34.72 1477.02 35.456C1475.74 36.192 1474.72 37.232 1473.95 38.576C1473.18 39.888 1472.8 41.456 1472.8 43.28C1472.8 45.072 1473.18 46.656 1473.95 48.032C1474.72 49.376 1475.74 50.416 1477.02 51.152C1478.3 51.888 1479.76 52.256 1481.39 52.256ZM1512.57 56.288C1509.85 56.288 1507.45 55.728 1505.37 54.608C1503.33 53.488 1501.73 51.952 1500.57 50C1499.45 48.048 1498.89 45.808 1498.89 43.28C1498.89 40.752 1499.44 38.512 1500.53 36.56C1501.65 34.608 1503.17 33.088 1505.09 32C1507.04 30.88 1509.23 30.32 1511.66 30.32C1514.13 30.32 1516.3 30.864 1518.19 31.952C1520.08 33.04 1521.55 34.576 1522.61 36.56C1523.69 38.512 1524.24 40.8 1524.24 43.424C1524.24 43.616 1524.22 43.84 1524.19 44.096C1524.19 44.352 1524.17 44.592 1524.14 44.816H1502.49V41.504H1521.74L1519.87 42.656C1519.9 41.024 1519.57 39.568 1518.86 38.288C1518.16 37.008 1517.18 36.016 1515.93 35.312C1514.72 34.576 1513.29 34.208 1511.66 34.208C1510.06 34.208 1508.64 34.576 1507.39 35.312C1506.14 36.016 1505.17 37.024 1504.46 38.336C1503.76 39.616 1503.41 41.088 1503.41 42.752V43.52C1503.41 45.216 1503.79 46.736 1504.56 48.08C1505.36 49.392 1506.46 50.416 1507.87 51.152C1509.28 51.888 1510.89 52.256 1512.72 52.256C1514.22 52.256 1515.58 52 1516.8 51.488C1518.05 50.976 1519.13 50.208 1520.06 49.184L1522.61 52.16C1521.45 53.504 1520.01 54.528 1518.29 55.232C1516.59 55.936 1514.69 56.288 1512.57 56.288ZM1531.39 56V30.56H1535.99V49.088L1551.59 30.56H1555.77V56H1551.16V37.472L1535.61 56H1531.39ZM1543.29 27.248C1540.95 27.248 1539.11 26.688 1537.77 25.568C1536.46 24.416 1535.79 22.768 1535.75 20.624H1538.87C1538.91 21.84 1539.31 22.8 1540.07 23.504C1540.87 24.208 1541.93 24.56 1543.24 24.56C1544.55 24.56 1545.61 24.208 1546.41 23.504C1547.21 22.8 1547.63 21.84 1547.66 20.624H1550.87C1550.84 22.768 1550.15 24.416 1548.81 25.568C1547.47 26.688 1545.63 27.248 1543.29 27.248ZM1577.6 56V30.56H1582.36L1593.3 49.376H1591.38L1602.61 30.56H1606.93V56H1602.76V35.744L1603.52 36.176L1593.25 53.12H1591.24L1580.92 35.84L1581.83 35.648V56H1577.6ZM1627.23 56.288C1624.51 56.288 1622.11 55.728 1620.03 54.608C1617.98 53.488 1616.38 51.952 1615.23 50C1614.11 48.048 1613.55 45.808 1613.55 43.28C1613.55 40.752 1614.09 38.512 1615.18 36.56C1616.3 34.608 1617.82 33.088 1619.74 32C1621.69 30.88 1623.89 30.32 1626.32 30.32C1628.78 30.32 1630.96 30.864 1632.85 31.952C1634.73 33.04 1636.21 34.576 1637.26 36.56C1638.35 38.512 1638.89 40.8 1638.89 43.424C1638.89 43.616 1638.88 43.84 1638.85 44.096C1638.85 44.352 1638.83 44.592 1638.8 44.816H1617.15V41.504H1636.4L1634.53 42.656C1634.56 41.024 1634.22 39.568 1633.52 38.288C1632.81 37.008 1631.84 36.016 1630.59 35.312C1629.37 34.576 1627.95 34.208 1626.32 34.208C1624.72 34.208 1623.29 34.576 1622.05 35.312C1620.8 36.016 1619.82 37.024 1619.12 38.336C1618.41 39.616 1618.06 41.088 1618.06 42.752V43.52C1618.06 45.216 1618.45 46.736 1619.21 48.08C1620.01 49.392 1621.12 50.416 1622.53 51.152C1623.93 51.888 1625.55 52.256 1627.37 52.256C1628.88 52.256 1630.24 52 1631.45 51.488C1632.7 50.976 1633.79 50.208 1634.72 49.184L1637.26 52.16C1636.11 53.504 1634.67 54.528 1632.94 55.232C1631.25 55.936 1629.34 56.288 1627.23 56.288ZM1662.07 45.584C1660.73 46.224 1659.34 46.736 1657.9 47.12C1656.49 47.472 1655.03 47.648 1653.53 47.648C1650.46 47.648 1648.03 46.928 1646.23 45.488C1644.47 44.048 1643.59 41.824 1643.59 38.816V30.56H1648.2V38.528C1648.2 40.352 1648.76 41.696 1649.88 42.56C1651.03 43.424 1652.57 43.856 1654.49 43.856C1655.71 43.856 1656.95 43.696 1658.23 43.376C1659.55 43.056 1660.83 42.608 1662.07 42.032V45.584ZM1661.74 56V30.56H1666.35V56H1661.74ZM1680.33 56V33.392L1681.48 34.592H1671.02V30.56H1694.25V34.592H1683.84L1684.94 33.392V56H1680.33ZM1724.12 56V30.56H1728.72V56H1724.12ZM1710.44 39.2C1713.67 39.232 1716.12 39.968 1717.78 41.408C1719.48 42.848 1720.32 44.88 1720.32 47.504C1720.32 50.256 1719.4 52.384 1717.54 53.888C1715.72 55.36 1713.09 56.08 1709.67 56.048L1698.96 56V30.56H1703.57V39.152L1710.44 39.2ZM1709.33 52.544C1711.38 52.576 1712.95 52.16 1714.04 51.296C1715.12 50.432 1715.67 49.152 1715.67 47.456C1715.67 45.792 1715.12 44.576 1714.04 43.808C1712.98 43.04 1711.41 42.64 1709.33 42.608L1703.57 42.512V52.496L1709.33 52.544Z" fill="#695CF0"/>
<path d="M570.284 5L581.8 27.7688L604.568 39.2842L579.981 48.9812L570.284 73.5684L560.587 48.9812L536 39.2842L558.769 27.7688L570.284 5Z" fill="#AA0019"/>
<path d="M1176.29 5L1187.8 27.7688L1210.57 39.2842L1185.98 48.9812L1176.29 73.5684L1166.59 48.9812L1142 39.2842L1164.77 27.7688L1176.29 5Z" fill="#AA0019"/>
<path d="M1782.29 5L1793.8 27.7688L1816.57 39.2842L1791.98 48.9812L1782.29 73.5684L1772.59 48.9812L1748 39.2842L1770.77 27.7688L1782.29 5Z" fill="#AA0019"/>
<path d="M1852.84 53.84V34.592H1841.8L1841.56 39.488C1841.5 41.088 1841.38 42.64 1841.22 44.144C1841.1 45.616 1840.87 46.976 1840.55 48.224C1840.26 49.472 1839.83 50.496 1839.26 51.296C1838.68 52.096 1837.91 52.592 1836.95 52.784L1832.39 51.968C1833.38 52 1834.18 51.68 1834.79 51.008C1835.4 50.304 1835.86 49.344 1836.18 48.128C1836.54 46.912 1836.79 45.536 1836.95 44C1837.11 42.432 1837.24 40.816 1837.34 39.152L1837.72 30.56H1857.45V53.84H1852.84ZM1831.38 61.904V51.968H1861.34V61.904H1857.02V56H1835.75V61.904H1831.38ZM1878.67 56.288C1875.95 56.288 1873.55 55.728 1871.47 54.608C1869.42 53.488 1867.82 51.952 1866.67 50C1865.55 48.048 1864.99 45.808 1864.99 43.28C1864.99 40.752 1865.53 38.512 1866.62 36.56C1867.74 34.608 1869.26 33.088 1871.18 32C1873.13 30.88 1875.32 30.32 1877.76 30.32C1880.22 30.32 1882.4 30.864 1884.28 31.952C1886.17 33.04 1887.64 34.576 1888.7 36.56C1889.79 38.512 1890.33 40.8 1890.33 43.424C1890.33 43.616 1890.32 43.84 1890.28 44.096C1890.28 44.352 1890.27 44.592 1890.24 44.816H1868.59V41.504H1887.84L1885.96 42.656C1886 41.024 1885.66 39.568 1884.96 38.288C1884.25 37.008 1883.28 36.016 1882.03 35.312C1880.81 34.576 1879.39 34.208 1877.76 34.208C1876.16 34.208 1874.73 34.576 1873.48 35.312C1872.24 36.016 1871.26 37.024 1870.56 38.336C1869.85 39.616 1869.5 41.088 1869.5 42.752V43.52C1869.5 45.216 1869.88 46.736 1870.65 48.08C1871.45 49.392 1872.56 50.416 1873.96 51.152C1875.37 51.888 1876.99 52.256 1878.81 52.256C1880.32 52.256 1881.68 52 1882.89 51.488C1884.14 50.976 1885.23 50.208 1886.16 49.184L1888.7 52.16C1887.55 53.504 1886.11 54.528 1884.38 55.232C1882.68 55.936 1880.78 56.288 1878.67 56.288ZM1908.57 56.288C1905.98 56.288 1903.66 55.728 1901.61 54.608C1899.59 53.488 1898.01 51.952 1896.86 50C1895.7 48.048 1895.13 45.808 1895.13 43.28C1895.13 40.752 1895.7 38.512 1896.86 36.56C1898.01 34.608 1899.59 33.088 1901.61 32C1903.66 30.88 1905.98 30.32 1908.57 30.32C1910.87 30.32 1912.92 30.784 1914.71 31.712C1916.54 32.608 1917.94 33.952 1918.94 35.744L1915.43 38C1914.6 36.752 1913.58 35.84 1912.36 35.264C1911.18 34.656 1909.9 34.352 1908.52 34.352C1906.86 34.352 1905.37 34.72 1904.06 35.456C1902.74 36.192 1901.7 37.232 1900.94 38.576C1900.17 39.888 1899.78 41.456 1899.78 43.28C1899.78 45.104 1900.17 46.688 1900.94 48.032C1901.7 49.376 1902.74 50.416 1904.06 51.152C1905.37 51.888 1906.86 52.256 1908.52 52.256C1909.9 52.256 1911.18 51.968 1912.36 51.392C1913.58 50.784 1914.6 49.856 1915.43 48.608L1918.94 50.816C1917.94 52.576 1916.54 53.936 1914.71 54.896C1912.92 55.824 1910.87 56.288 1908.57 56.288ZM1935.85 56.288C1933.13 56.288 1930.73 55.728 1928.65 54.608C1926.61 53.488 1925.01 51.952 1923.85 50C1922.73 48.048 1922.17 45.808 1922.17 43.28C1922.17 40.752 1922.72 38.512 1923.81 36.56C1924.93 34.608 1926.45 33.088 1928.37 32C1930.32 30.88 1932.51 30.32 1934.94 30.32C1937.41 30.32 1939.58 30.864 1941.47 31.952C1943.36 33.04 1944.83 34.576 1945.89 36.56C1946.97 38.512 1947.52 40.8 1947.52 43.424C1947.52 43.616 1947.5 43.84 1947.47 44.096C1947.47 44.352 1947.45 44.592 1947.42 44.816H1925.77V41.504H1945.02L1943.15 42.656C1943.18 41.024 1942.85 39.568 1942.14 38.288C1941.44 37.008 1940.46 36.016 1939.21 35.312C1938 34.576 1936.57 34.208 1934.94 34.208C1933.34 34.208 1931.92 34.576 1930.67 35.312C1929.42 36.016 1928.45 37.024 1927.74 38.336C1927.04 39.616 1926.69 41.088 1926.69 42.752V43.52C1926.69 45.216 1927.07 46.736 1927.84 48.08C1928.64 49.392 1929.74 50.416 1931.15 51.152C1932.56 51.888 1934.17 52.256 1936 52.256C1937.5 52.256 1938.86 52 1940.08 51.488C1941.33 50.976 1942.41 50.208 1943.34 49.184L1945.89 52.16C1944.73 53.504 1943.29 54.528 1941.57 55.232C1939.87 55.936 1937.97 56.288 1935.85 56.288ZM1968.16 56.288C1966.04 56.288 1964.11 55.808 1962.35 54.848C1960.62 53.856 1959.23 52.4 1958.17 50.48C1957.15 48.56 1956.64 46.16 1956.64 43.28C1956.64 40.4 1957.13 38 1958.12 36.08C1959.15 34.16 1960.52 32.72 1962.25 31.76C1964.01 30.8 1965.98 30.32 1968.16 30.32C1970.65 30.32 1972.86 30.864 1974.78 31.952C1976.7 33.04 1978.22 34.56 1979.34 36.512C1980.46 38.432 1981.02 40.688 1981.02 43.28C1981.02 45.872 1980.46 48.144 1979.34 50.096C1978.22 52.048 1976.7 53.568 1974.78 54.656C1972.86 55.744 1970.65 56.288 1968.16 56.288ZM1954.67 65.312V30.56H1959.08V37.424L1958.8 43.328L1959.28 49.232V65.312H1954.67ZM1967.77 52.256C1969.4 52.256 1970.86 51.888 1972.14 51.152C1973.45 50.416 1974.48 49.376 1975.21 48.032C1975.98 46.656 1976.36 45.072 1976.36 43.28C1976.36 41.456 1975.98 39.888 1975.21 38.576C1974.48 37.232 1973.45 36.192 1972.14 35.456C1970.86 34.72 1969.4 34.352 1967.77 34.352C1966.17 34.352 1964.72 34.72 1963.4 35.456C1962.12 36.192 1961.1 37.232 1960.33 38.576C1959.6 39.888 1959.23 41.456 1959.23 43.28C1959.23 45.072 1959.6 46.656 1960.33 48.032C1961.1 49.376 1962.12 50.416 1963.4 51.152C1964.72 51.888 1966.17 52.256 1967.77 52.256ZM1991.82 56V33.392L1992.97 34.592H1982.5V30.56H2005.74V34.592H1995.32L1996.42 33.392V56H1991.82ZM2028.38 56V33.392L2029.53 34.592H2019.07V30.56H2042.3V34.592H2031.88L2032.99 33.392V56H2028.38ZM2047.01 56V30.56H2058.82C2061.79 30.56 2064.13 31.136 2065.83 32.288C2067.55 33.408 2068.42 35.008 2068.42 37.088C2068.42 39.168 2067.6 40.784 2065.97 41.936C2064.37 43.056 2062.24 43.616 2059.59 43.616L2060.31 42.368C2063.35 42.368 2065.6 42.928 2067.07 44.048C2068.55 45.168 2069.28 46.816 2069.28 48.992C2069.28 51.2 2068.45 52.928 2066.79 54.176C2065.15 55.392 2062.64 56 2059.25 56H2047.01ZM2051.52 52.448H2058.91C2060.83 52.448 2062.27 52.16 2063.23 51.584C2064.19 50.976 2064.67 50.016 2064.67 48.704C2064.67 47.36 2064.23 46.384 2063.33 45.776C2062.47 45.136 2061.09 44.816 2059.2 44.816H2051.52V52.448ZM2051.52 41.504H2058.43C2060.19 41.504 2061.52 41.184 2062.42 40.544C2063.35 39.872 2063.81 38.944 2063.81 37.76C2063.81 36.544 2063.35 35.632 2062.42 35.024C2061.52 34.416 2060.19 34.112 2058.43 34.112H2051.52V41.504ZM2087.39 56.288C2084.83 56.288 2082.56 55.728 2080.58 54.608C2078.59 53.488 2077.02 51.952 2075.87 50C2074.72 48.016 2074.14 45.776 2074.14 43.28C2074.14 40.752 2074.72 38.512 2075.87 36.56C2077.02 34.608 2078.59 33.088 2080.58 32C2082.56 30.88 2084.83 30.32 2087.39 30.32C2089.92 30.32 2092.18 30.88 2094.16 32C2096.18 33.088 2097.74 34.608 2098.86 36.56C2100.02 38.48 2100.59 40.72 2100.59 43.28C2100.59 45.808 2100.02 48.048 2098.86 50C2097.74 51.952 2096.18 53.488 2094.16 54.608C2092.18 55.728 2089.92 56.288 2087.39 56.288ZM2087.39 52.256C2089.02 52.256 2090.48 51.888 2091.76 51.152C2093.07 50.416 2094.1 49.376 2094.83 48.032C2095.57 46.656 2095.94 45.072 2095.94 43.28C2095.94 41.456 2095.57 39.888 2094.83 38.576C2094.1 37.232 2093.07 36.192 2091.76 35.456C2090.48 34.72 2089.02 34.352 2087.39 34.352C2085.76 34.352 2084.3 34.72 2083.02 35.456C2081.74 36.192 2080.72 37.232 2079.95 38.576C2079.18 39.888 2078.8 41.456 2078.8 43.28C2078.8 45.072 2079.18 46.656 2079.95 48.032C2080.72 49.376 2081.74 50.416 2083.02 51.152C2084.3 51.888 2085.76 52.256 2087.39 52.256ZM2118.57 56.288C2115.85 56.288 2113.45 55.728 2111.37 54.608C2109.33 53.488 2107.73 51.952 2106.57 50C2105.45 48.048 2104.89 45.808 2104.89 43.28C2104.89 40.752 2105.44 38.512 2106.53 36.56C2107.65 34.608 2109.17 33.088 2111.09 32C2113.04 30.88 2115.23 30.32 2117.66 30.32C2120.13 30.32 2122.3 30.864 2124.19 31.952C2126.08 33.04 2127.55 34.576 2128.61 36.56C2129.69 38.512 2130.24 40.8 2130.24 43.424C2130.24 43.616 2130.22 43.84 2130.19 44.096C2130.19 44.352 2130.17 44.592 2130.14 44.816H2108.49V41.504H2127.74L2125.87 42.656C2125.9 41.024 2125.57 39.568 2124.86 38.288C2124.16 37.008 2123.18 36.016 2121.93 35.312C2120.72 34.576 2119.29 34.208 2117.66 34.208C2116.06 34.208 2114.64 34.576 2113.39 35.312C2112.14 36.016 2111.17 37.024 2110.46 38.336C2109.76 39.616 2109.41 41.088 2109.41 42.752V43.52C2109.41 45.216 2109.79 46.736 2110.56 48.08C2111.36 49.392 2112.46 50.416 2113.87 51.152C2115.28 51.888 2116.89 52.256 2118.72 52.256C2120.22 52.256 2121.58 52 2122.8 51.488C2124.05 50.976 2125.13 50.208 2126.06 49.184L2128.61 52.16C2127.45 53.504 2126.01 54.528 2124.29 55.232C2122.59 55.936 2120.69 56.288 2118.57 56.288ZM2137.39 56V30.56H2141.99V49.088L2157.59 30.56H2161.77V56H2157.16V37.472L2141.61 56H2137.39ZM2149.29 27.248C2146.95 27.248 2145.11 26.688 2143.77 25.568C2142.46 24.416 2141.79 22.768 2141.75 20.624H2144.87C2144.91 21.84 2145.31 22.8 2146.07 23.504C2146.87 24.208 2147.93 24.56 2149.24 24.56C2150.55 24.56 2151.61 24.208 2152.41 23.504C2153.21 22.8 2153.63 21.84 2153.66 20.624H2156.87C2156.84 22.768 2156.15 24.416 2154.81 25.568C2153.47 26.688 2151.63 27.248 2149.29 27.248ZM2183.6 56V30.56H2188.36L2199.3 49.376H2197.38L2208.61 30.56H2212.93V56H2208.76V35.744L2209.52 36.176L2199.25 53.12H2197.24L2186.92 35.84L2187.83 35.648V56H2183.6ZM2233.23 56.288C2230.51 56.288 2228.11 55.728 2226.03 54.608C2223.98 53.488 2222.38 51.952 2221.23 50C2220.11 48.048 2219.55 45.808 2219.55 43.28C2219.55 40.752 2220.09 38.512 2221.18 36.56C2222.3 34.608 2223.82 33.088 2225.74 32C2227.69 30.88 2229.89 30.32 2232.32 30.32C2234.78 30.32 2236.96 30.864 2238.85 31.952C2240.73 33.04 2242.21 34.576 2243.26 36.56C2244.35 38.512 2244.89 40.8 2244.89 43.424C2244.89 43.616 2244.88 43.84 2244.85 44.096C2244.85 44.352 2244.83 44.592 2244.8 44.816H2223.15V41.504H2242.4L2240.53 42.656C2240.56 41.024 2240.22 39.568 2239.52 38.288C2238.81 37.008 2237.84 36.016 2236.59 35.312C2235.37 34.576 2233.95 34.208 2232.32 34.208C2230.72 34.208 2229.29 34.576 2228.05 35.312C2226.8 36.016 2225.82 37.024 2225.12 38.336C2224.41 39.616 2224.06 41.088 2224.06 42.752V43.52C2224.06 45.216 2224.45 46.736 2225.21 48.08C2226.01 49.392 2227.12 50.416 2228.53 51.152C2229.93 51.888 2231.55 52.256 2233.37 52.256C2234.88 52.256 2236.24 52 2237.45 51.488C2238.7 50.976 2239.79 50.208 2240.72 49.184L2243.26 52.16C2242.11 53.504 2240.67 54.528 2238.94 55.232C2237.25 55.936 2235.34 56.288 2233.23 56.288ZM2268.07 45.584C2266.73 46.224 2265.34 46.736 2263.9 47.12C2262.49 47.472 2261.03 47.648 2259.53 47.648C2256.46 47.648 2254.03 46.928 2252.23 45.488C2250.47 44.048 2249.59 41.824 2249.59 38.816V30.56H2254.2V38.528C2254.2 40.352 2254.76 41.696 2255.88 42.56C2257.03 43.424 2258.57 43.856 2260.49 43.856C2261.71 43.856 2262.95 43.696 2264.23 43.376C2265.55 43.056 2266.83 42.608 2268.07 42.032V45.584ZM2267.74 56V30.56H2272.35V56H2267.74ZM2286.33 56V33.392L2287.48 34.592H2277.02V30.56H2300.25V34.592H2289.84L2290.94 33.392V56H2286.33ZM2330.12 56V30.56H2334.72V56H2330.12ZM2316.44 39.2C2319.67 39.232 2322.12 39.968 2323.78 41.408C2325.48 42.848 2326.32 44.88 2326.32 47.504C2326.32 50.256 2325.4 52.384 2323.54 53.888C2321.72 55.36 2319.09 56.08 2315.67 56.048L2304.96 56V30.56H2309.57V39.152L2316.44 39.2ZM2315.33 52.544C2317.38 52.576 2318.95 52.16 2320.04 51.296C2321.12 50.432 2321.67 49.152 2321.67 47.456C2321.67 45.792 2321.12 44.576 2320.04 43.808C2318.98 43.04 2317.41 42.64 2315.33 42.608L2309.57 42.512V52.496L2315.33 52.544Z" fill="#695CF0"/>
<path d="M2458.84 53.84V34.592H2447.8L2447.56 39.488C2447.5 41.088 2447.38 42.64 2447.22 44.144C2447.1 45.616 2446.87 46.976 2446.55 48.224C2446.26 49.472 2445.83 50.496 2445.26 51.296C2444.68 52.096 2443.91 52.592 2442.95 52.784L2438.39 51.968C2439.38 52 2440.18 51.68 2440.79 51.008C2441.4 50.304 2441.86 49.344 2442.18 48.128C2442.54 46.912 2442.79 45.536 2442.95 44C2443.11 42.432 2443.24 40.816 2443.34 39.152L2443.72 30.56H2463.45V53.84H2458.84ZM2437.38 61.904V51.968H2467.34V61.904H2463.02V56H2441.75V61.904H2437.38ZM2484.67 56.288C2481.95 56.288 2479.55 55.728 2477.47 54.608C2475.42 53.488 2473.82 51.952 2472.67 50C2471.55 48.048 2470.99 45.808 2470.99 43.28C2470.99 40.752 2471.53 38.512 2472.62 36.56C2473.74 34.608 2475.26 33.088 2477.18 32C2479.13 30.88 2481.32 30.32 2483.76 30.32C2486.22 30.32 2488.4 30.864 2490.28 31.952C2492.17 33.04 2493.64 34.576 2494.7 36.56C2495.79 38.512 2496.33 40.8 2496.33 43.424C2496.33 43.616 2496.32 43.84 2496.28 44.096C2496.28 44.352 2496.27 44.592 2496.24 44.816H2474.59V41.504H2493.84L2491.96 42.656C2492 41.024 2491.66 39.568 2490.96 38.288C2490.25 37.008 2489.28 36.016 2488.03 35.312C2486.81 34.576 2485.39 34.208 2483.76 34.208C2482.16 34.208 2480.73 34.576 2479.48 35.312C2478.24 36.016 2477.26 37.024 2476.56 38.336C2475.85 39.616 2475.5 41.088 2475.5 42.752V43.52C2475.5 45.216 2475.88 46.736 2476.65 48.08C2477.45 49.392 2478.56 50.416 2479.96 51.152C2481.37 51.888 2482.99 52.256 2484.81 52.256C2486.32 52.256 2487.68 52 2488.89 51.488C2490.14 50.976 2491.23 50.208 2492.16 49.184L2494.7 52.16C2493.55 53.504 2492.11 54.528 2490.38 55.232C2488.68 55.936 2486.78 56.288 2484.67 56.288ZM2514.57 56.288C2511.98 56.288 2509.66 55.728 2507.61 54.608C2505.59 53.488 2504.01 51.952 2502.86 50C2501.7 48.048 2501.13 45.808 2501.13 43.28C2501.13 40.752 2501.7 38.512 2502.86 36.56C2504.01 34.608 2505.59 33.088 2507.61 32C2509.66 30.88 2511.98 30.32 2514.57 30.32C2516.87 30.32 2518.92 30.784 2520.71 31.712C2522.54 32.608 2523.94 33.952 2524.94 35.744L2521.43 38C2520.6 36.752 2519.58 35.84 2518.36 35.264C2517.18 34.656 2515.9 34.352 2514.52 34.352C2512.86 34.352 2511.37 34.72 2510.06 35.456C2508.74 36.192 2507.7 37.232 2506.94 38.576C2506.17 39.888 2505.78 41.456 2505.78 43.28C2505.78 45.104 2506.17 46.688 2506.94 48.032C2507.7 49.376 2508.74 50.416 2510.06 51.152C2511.37 51.888 2512.86 52.256 2514.52 52.256C2515.9 52.256 2517.18 51.968 2518.36 51.392C2519.58 50.784 2520.6 49.856 2521.43 48.608L2524.94 50.816C2523.94 52.576 2522.54 53.936 2520.71 54.896C2518.92 55.824 2516.87 56.288 2514.57 56.288ZM2541.85 56.288C2539.13 56.288 2536.73 55.728 2534.65 54.608C2532.61 53.488 2531.01 51.952 2529.85 50C2528.73 48.048 2528.17 45.808 2528.17 43.28C2528.17 40.752 2528.72 38.512 2529.81 36.56C2530.93 34.608 2532.45 33.088 2534.37 32C2536.32 30.88 2538.51 30.32 2540.94 30.32C2543.41 30.32 2545.58 30.864 2547.47 31.952C2549.36 33.04 2550.83 34.576 2551.89 36.56C2552.97 38.512 2553.52 40.8 2553.52 43.424C2553.52 43.616 2553.5 43.84 2553.47 44.096C2553.47 44.352 2553.45 44.592 2553.42 44.816H2531.77V41.504H2551.02L2549.15 42.656C2549.18 41.024 2548.85 39.568 2548.14 38.288C2547.44 37.008 2546.46 36.016 2545.21 35.312C2544 34.576 2542.57 34.208 2540.94 34.208C2539.34 34.208 2537.92 34.576 2536.67 35.312C2535.42 36.016 2534.45 37.024 2533.74 38.336C2533.04 39.616 2532.69 41.088 2532.69 42.752V43.52C2532.69 45.216 2533.07 46.736 2533.84 48.08C2534.64 49.392 2535.74 50.416 2537.15 51.152C2538.56 51.888 2540.17 52.256 2542 52.256C2543.5 52.256 2544.86 52 2546.08 51.488C2547.33 50.976 2548.41 50.208 2549.34 49.184L2551.89 52.16C2550.73 53.504 2549.29 54.528 2547.57 55.232C2545.87 55.936 2543.97 56.288 2541.85 56.288ZM2574.16 56.288C2572.04 56.288 2570.11 55.808 2568.35 54.848C2566.62 53.856 2565.23 52.4 2564.17 50.48C2563.15 48.56 2562.64 46.16 2562.64 43.28C2562.64 40.4 2563.13 38 2564.12 36.08C2565.15 34.16 2566.52 32.72 2568.25 31.76C2570.01 30.8 2571.98 30.32 2574.16 30.32C2576.65 30.32 2578.86 30.864 2580.78 31.952C2582.7 33.04 2584.22 34.56 2585.34 36.512C2586.46 38.432 2587.02 40.688 2587.02 43.28C2587.02 45.872 2586.46 48.144 2585.34 50.096C2584.22 52.048 2582.7 53.568 2580.78 54.656C2578.86 55.744 2576.65 56.288 2574.16 56.288ZM2560.67 65.312V30.56H2565.08V37.424L2564.8 43.328L2565.28 49.232V65.312H2560.67ZM2573.77 52.256C2575.4 52.256 2576.86 51.888 2578.14 51.152C2579.45 50.416 2580.48 49.376 2581.21 48.032C2581.98 46.656 2582.36 45.072 2582.36 43.28C2582.36 41.456 2581.98 39.888 2581.21 38.576C2580.48 37.232 2579.45 36.192 2578.14 35.456C2576.86 34.72 2575.4 34.352 2573.77 34.352C2572.17 34.352 2570.72 34.72 2569.4 35.456C2568.12 36.192 2567.1 37.232 2566.33 38.576C2565.6 39.888 2565.23 41.456 2565.23 43.28C2565.23 45.072 2565.6 46.656 2566.33 48.032C2567.1 49.376 2568.12 50.416 2569.4 51.152C2570.72 51.888 2572.17 52.256 2573.77 52.256ZM2597.82 56V33.392L2598.97 34.592H2588.5V30.56H2611.74V34.592H2601.32L2602.42 33.392V56H2597.82ZM2634.38 56V33.392L2635.53 34.592H2625.07V30.56H2648.3V34.592H2637.88L2638.99 33.392V56H2634.38ZM2653.01 56V30.56H2664.82C2667.79 30.56 2670.13 31.136 2671.83 32.288C2673.55 33.408 2674.42 35.008 2674.42 37.088C2674.42 39.168 2673.6 40.784 2671.97 41.936C2670.37 43.056 2668.24 43.616 2665.59 43.616L2666.31 42.368C2669.35 42.368 2671.6 42.928 2673.07 44.048C2674.55 45.168 2675.28 46.816 2675.28 48.992C2675.28 51.2 2674.45 52.928 2672.79 54.176C2671.15 55.392 2668.64 56 2665.25 56H2653.01ZM2657.52 52.448H2664.91C2666.83 52.448 2668.27 52.16 2669.23 51.584C2670.19 50.976 2670.67 50.016 2670.67 48.704C2670.67 47.36 2670.23 46.384 2669.33 45.776C2668.47 45.136 2667.09 44.816 2665.2 44.816H2657.52V52.448ZM2657.52 41.504H2664.43C2666.19 41.504 2667.52 41.184 2668.42 40.544C2669.35 39.872 2669.81 38.944 2669.81 37.76C2669.81 36.544 2669.35 35.632 2668.42 35.024C2667.52 34.416 2666.19 34.112 2664.43 34.112H2657.52V41.504ZM2693.39 56.288C2690.83 56.288 2688.56 55.728 2686.58 54.608C2684.59 53.488 2683.02 51.952 2681.87 50C2680.72 48.016 2680.14 45.776 2680.14 43.28C2680.14 40.752 2680.72 38.512 2681.87 36.56C2683.02 34.608 2684.59 33.088 2686.58 32C2688.56 30.88 2690.83 30.32 2693.39 30.32C2695.92 30.32 2698.18 30.88 2700.16 32C2702.18 33.088 2703.74 34.608 2704.86 36.56C2706.02 38.48 2706.59 40.72 2706.59 43.28C2706.59 45.808 2706.02 48.048 2704.86 50C2703.74 51.952 2702.18 53.488 2700.16 54.608C2698.18 55.728 2695.92 56.288 2693.39 56.288ZM2693.39 52.256C2695.02 52.256 2696.48 51.888 2697.76 51.152C2699.07 50.416 2700.1 49.376 2700.83 48.032C2701.57 46.656 2701.94 45.072 2701.94 43.28C2701.94 41.456 2701.57 39.888 2700.83 38.576C2700.1 37.232 2699.07 36.192 2697.76 35.456C2696.48 34.72 2695.02 34.352 2693.39 34.352C2691.76 34.352 2690.3 34.72 2689.02 35.456C2687.74 36.192 2686.72 37.232 2685.95 38.576C2685.18 39.888 2684.8 41.456 2684.8 43.28C2684.8 45.072 2685.18 46.656 2685.95 48.032C2686.72 49.376 2687.74 50.416 2689.02 51.152C2690.3 51.888 2691.76 52.256 2693.39 52.256ZM2724.57 56.288C2721.85 56.288 2719.45 55.728 2717.37 54.608C2715.33 53.488 2713.73 51.952 2712.57 50C2711.45 48.048 2710.89 45.808 2710.89 43.28C2710.89 40.752 2711.44 38.512 2712.53 36.56C2713.65 34.608 2715.17 33.088 2717.09 32C2719.04 30.88 2721.23 30.32 2723.66 30.32C2726.13 30.32 2728.3 30.864 2730.19 31.952C2732.08 33.04 2733.55 34.576 2734.61 36.56C2735.69 38.512 2736.24 40.8 2736.24 43.424C2736.24 43.616 2736.22 43.84 2736.19 44.096C2736.19 44.352 2736.17 44.592 2736.14 44.816H2714.49V41.504H2733.74L2731.87 42.656C2731.9 41.024 2731.57 39.568 2730.86 38.288C2730.16 37.008 2729.18 36.016 2727.93 35.312C2726.72 34.576 2725.29 34.208 2723.66 34.208C2722.06 34.208 2720.64 34.576 2719.39 35.312C2718.14 36.016 2717.17 37.024 2716.46 38.336C2715.76 39.616 2715.41 41.088 2715.41 42.752V43.52C2715.41 45.216 2715.79 46.736 2716.56 48.08C2717.36 49.392 2718.46 50.416 2719.87 51.152C2721.28 51.888 2722.89 52.256 2724.72 52.256C2726.22 52.256 2727.58 52 2728.8 51.488C2730.05 50.976 2731.13 50.208 2732.06 49.184L2734.61 52.16C2733.45 53.504 2732.01 54.528 2730.29 55.232C2728.59 55.936 2726.69 56.288 2724.57 56.288ZM2743.39 56V30.56H2747.99V49.088L2763.59 30.56H2767.77V56H2763.16V37.472L2747.61 56H2743.39ZM2755.29 27.248C2752.95 27.248 2751.11 26.688 2749.77 25.568C2748.46 24.416 2747.79 22.768 2747.75 20.624H2750.87C2750.91 21.84 2751.31 22.8 2752.07 23.504C2752.87 24.208 2753.93 24.56 2755.24 24.56C2756.55 24.56 2757.61 24.208 2758.41 23.504C2759.21 22.8 2759.63 21.84 2759.66 20.624H2762.87C2762.84 22.768 2762.15 24.416 2760.81 25.568C2759.47 26.688 2757.63 27.248 2755.29 27.248ZM2789.6 56V30.56H2794.36L2805.3 49.376H2803.38L2814.61 30.56H2818.93V56H2814.76V35.744L2815.52 36.176L2805.25 53.12H2803.24L2792.92 35.84L2793.83 35.648V56H2789.6ZM2839.23 56.288C2836.51 56.288 2834.11 55.728 2832.03 54.608C2829.98 53.488 2828.38 51.952 2827.23 50C2826.11 48.048 2825.55 45.808 2825.55 43.28C2825.55 40.752 2826.09 38.512 2827.18 36.56C2828.3 34.608 2829.82 33.088 2831.74 32C2833.69 30.88 2835.89 30.32 2838.32 30.32C2840.78 30.32 2842.96 30.864 2844.85 31.952C2846.73 33.04 2848.21 34.576 2849.26 36.56C2850.35 38.512 2850.89 40.8 2850.89 43.424C2850.89 43.616 2850.88 43.84 2850.85 44.096C2850.85 44.352 2850.83 44.592 2850.8 44.816H2829.15V41.504H2848.4L2846.53 42.656C2846.56 41.024 2846.22 39.568 2845.52 38.288C2844.81 37.008 2843.84 36.016 2842.59 35.312C2841.37 34.576 2839.95 34.208 2838.32 34.208C2836.72 34.208 2835.29 34.576 2834.05 35.312C2832.8 36.016 2831.82 37.024 2831.12 38.336C2830.41 39.616 2830.06 41.088 2830.06 42.752V43.52C2830.06 45.216 2830.45 46.736 2831.21 48.08C2832.01 49.392 2833.12 50.416 2834.53 51.152C2835.93 51.888 2837.55 52.256 2839.37 52.256C2840.88 52.256 2842.24 52 2843.45 51.488C2844.7 50.976 2845.79 50.208 2846.72 49.184L2849.26 52.16C2848.11 53.504 2846.67 54.528 2844.94 55.232C2843.25 55.936 2841.34 56.288 2839.23 56.288ZM2874.07 45.584C2872.73 46.224 2871.34 46.736 2869.9 47.12C2868.49 47.472 2867.03 47.648 2865.53 47.648C2862.46 47.648 2860.03 46.928 2858.23 45.488C2856.47 44.048 2855.59 41.824 2855.59 38.816V30.56H2860.2V38.528C2860.2 40.352 2860.76 41.696 2861.88 42.56C2863.03 43.424 2864.57 43.856 2866.49 43.856C2867.71 43.856 2868.95 43.696 2870.23 43.376C2871.55 43.056 2872.83 42.608 2874.07 42.032V45.584ZM2873.74 56V30.56H2878.35V56H2873.74ZM2892.33 56V33.392L2893.48 34.592H2883.02V30.56H2906.25V34.592H2895.84L2896.94 33.392V56H2892.33ZM2936.12 56V30.56H2940.72V56H2936.12ZM2922.44 39.2C2925.67 39.232 2928.12 39.968 2929.78 41.408C2931.48 42.848 2932.32 44.88 2932.32 47.504C2932.32 50.256 2931.4 52.384 2929.54 53.888C2927.72 55.36 2925.09 56.08 2921.67 56.048L2910.96 56V30.56H2915.57V39.152L2922.44 39.2ZM2921.33 52.544C2923.38 52.576 2924.95 52.16 2926.04 51.296C2927.12 50.432 2927.67 49.152 2927.67 47.456C2927.67 45.792 2927.12 44.576 2926.04 43.808C2924.98 43.04 2923.41 42.64 2921.33 42.608L2915.57 42.512V52.496L2921.33 52.544Z" fill="#695CF0"/>
<path d="M2388.29 5L2399.8 27.7688L2422.57 39.2842L2397.98 48.9812L2388.29 73.5684L2378.59 48.9812L2354 39.2842L2376.77 27.7688L2388.29 5Z" fill="#AA0019"/>
<path d="M2994.29 5L3005.8 27.7688L3028.57 39.2842L3003.98 48.9812L2994.29 73.5684L2984.59 48.9812L2960 39.2842L2982.77 27.7688L2994.29 5Z" fill="#AA0019"/>
<path d="M3064.84 53.84V34.592H3053.8L3053.56 39.488C3053.5 41.088 3053.38 42.64 3053.22 44.144C3053.1 45.616 3052.87 46.976 3052.55 48.224C3052.26 49.472 3051.83 50.496 3051.26 51.296C3050.68 52.096 3049.91 52.592 3048.95 52.784L3044.39 51.968C3045.38 52 3046.18 51.68 3046.79 51.008C3047.4 50.304 3047.86 49.344 3048.18 48.128C3048.54 46.912 3048.79 45.536 3048.95 44C3049.11 42.432 3049.24 40.816 3049.34 39.152L3049.72 30.56H3069.45V53.84H3064.84ZM3043.38 61.904V51.968H3073.34V61.904H3069.02V56H3047.75V61.904H3043.38ZM3090.67 56.288C3087.95 56.288 3085.55 55.728 3083.47 54.608C3081.42 53.488 3079.82 51.952 3078.67 50C3077.55 48.048 3076.99 45.808 3076.99 43.28C3076.99 40.752 3077.53 38.512 3078.62 36.56C3079.74 34.608 3081.26 33.088 3083.18 32C3085.13 30.88 3087.32 30.32 3089.76 30.32C3092.22 30.32 3094.4 30.864 3096.28 31.952C3098.17 33.04 3099.64 34.576 3100.7 36.56C3101.79 38.512 3102.33 40.8 3102.33 43.424C3102.33 43.616 3102.32 43.84 3102.28 44.096C3102.28 44.352 3102.27 44.592 3102.24 44.816H3080.59V41.504H3099.84L3097.96 42.656C3098 41.024 3097.66 39.568 3096.96 38.288C3096.25 37.008 3095.28 36.016 3094.03 35.312C3092.81 34.576 3091.39 34.208 3089.76 34.208C3088.16 34.208 3086.73 34.576 3085.48 35.312C3084.24 36.016 3083.26 37.024 3082.56 38.336C3081.85 39.616 3081.5 41.088 3081.5 42.752V43.52C3081.5 45.216 3081.88 46.736 3082.65 48.08C3083.45 49.392 3084.56 50.416 3085.96 51.152C3087.37 51.888 3088.99 52.256 3090.81 52.256C3092.32 52.256 3093.68 52 3094.89 51.488C3096.14 50.976 3097.23 50.208 3098.16 49.184L3100.7 52.16C3099.55 53.504 3098.11 54.528 3096.38 55.232C3094.68 55.936 3092.78 56.288 3090.67 56.288ZM3120.57 56.288C3117.98 56.288 3115.66 55.728 3113.61 54.608C3111.59 53.488 3110.01 51.952 3108.86 50C3107.7 48.048 3107.13 45.808 3107.13 43.28C3107.13 40.752 3107.7 38.512 3108.86 36.56C3110.01 34.608 3111.59 33.088 3113.61 32C3115.66 30.88 3117.98 30.32 3120.57 30.32C3122.87 30.32 3124.92 30.784 3126.71 31.712C3128.54 32.608 3129.94 33.952 3130.94 35.744L3127.43 38C3126.6 36.752 3125.58 35.84 3124.36 35.264C3123.18 34.656 3121.9 34.352 3120.52 34.352C3118.86 34.352 3117.37 34.72 3116.06 35.456C3114.74 36.192 3113.7 37.232 3112.94 38.576C3112.17 39.888 3111.78 41.456 3111.78 43.28C3111.78 45.104 3112.17 46.688 3112.94 48.032C3113.7 49.376 3114.74 50.416 3116.06 51.152C3117.37 51.888 3118.86 52.256 3120.52 52.256C3121.9 52.256 3123.18 51.968 3124.36 51.392C3125.58 50.784 3126.6 49.856 3127.43 48.608L3130.94 50.816C3129.94 52.576 3128.54 53.936 3126.71 54.896C3124.92 55.824 3122.87 56.288 3120.57 56.288ZM3147.85 56.288C3145.13 56.288 3142.73 55.728 3140.65 54.608C3138.61 53.488 3137.01 51.952 3135.85 50C3134.73 48.048 3134.17 45.808 3134.17 43.28C3134.17 40.752 3134.72 38.512 3135.81 36.56C3136.93 34.608 3138.45 33.088 3140.37 32C3142.32 30.88 3144.51 30.32 3146.94 30.32C3149.41 30.32 3151.58 30.864 3153.47 31.952C3155.36 33.04 3156.83 34.576 3157.89 36.56C3158.97 38.512 3159.52 40.8 3159.52 43.424C3159.52 43.616 3159.5 43.84 3159.47 44.096C3159.47 44.352 3159.45 44.592 3159.42 44.816H3137.77V41.504H3157.02L3155.15 42.656C3155.18 41.024 3154.85 39.568 3154.14 38.288C3153.44 37.008 3152.46 36.016 3151.21 35.312C3150 34.576 3148.57 34.208 3146.94 34.208C3145.34 34.208 3143.92 34.576 3142.67 35.312C3141.42 36.016 3140.45 37.024 3139.74 38.336C3139.04 39.616 3138.69 41.088 3138.69 42.752V43.52C3138.69 45.216 3139.07 46.736 3139.84 48.08C3140.64 49.392 3141.74 50.416 3143.15 51.152C3144.56 51.888 3146.17 52.256 3148 52.256C3149.5 52.256 3150.86 52 3152.08 51.488C3153.33 50.976 3154.41 50.208 3155.34 49.184L3157.89 52.16C3156.73 53.504 3155.29 54.528 3153.57 55.232C3151.87 55.936 3149.97 56.288 3147.85 56.288ZM3180.16 56.288C3178.04 56.288 3176.11 55.808 3174.35 54.848C3172.62 53.856 3171.23 52.4 3170.17 50.48C3169.15 48.56 3168.64 46.16 3168.64 43.28C3168.64 40.4 3169.13 38 3170.12 36.08C3171.15 34.16 3172.52 32.72 3174.25 31.76C3176.01 30.8 3177.98 30.32 3180.16 30.32C3182.65 30.32 3184.86 30.864 3186.78 31.952C3188.7 33.04 3190.22 34.56 3191.34 36.512C3192.46 38.432 3193.02 40.688 3193.02 43.28C3193.02 45.872 3192.46 48.144 3191.34 50.096C3190.22 52.048 3188.7 53.568 3186.78 54.656C3184.86 55.744 3182.65 56.288 3180.16 56.288ZM3166.67 65.312V30.56H3171.08V37.424L3170.8 43.328L3171.28 49.232V65.312H3166.67ZM3179.77 52.256C3181.4 52.256 3182.86 51.888 3184.14 51.152C3185.45 50.416 3186.48 49.376 3187.21 48.032C3187.98 46.656 3188.36 45.072 3188.36 43.28C3188.36 41.456 3187.98 39.888 3187.21 38.576C3186.48 37.232 3185.45 36.192 3184.14 35.456C3182.86 34.72 3181.4 34.352 3179.77 34.352C3178.17 34.352 3176.72 34.72 3175.4 35.456C3174.12 36.192 3173.1 37.232 3172.33 38.576C3171.6 39.888 3171.23 41.456 3171.23 43.28C3171.23 45.072 3171.6 46.656 3172.33 48.032C3173.1 49.376 3174.12 50.416 3175.4 51.152C3176.72 51.888 3178.17 52.256 3179.77 52.256ZM3203.82 56V33.392L3204.97 34.592H3194.5V30.56H3217.74V34.592H3207.32L3208.42 33.392V56H3203.82ZM3240.38 56V33.392L3241.53 34.592H3231.07V30.56H3254.3V34.592H3243.88L3244.99 33.392V56H3240.38ZM3259.01 56V30.56H3270.82C3273.79 30.56 3276.13 31.136 3277.83 32.288C3279.55 33.408 3280.42 35.008 3280.42 37.088C3280.42 39.168 3279.6 40.784 3277.97 41.936C3276.37 43.056 3274.24 43.616 3271.59 43.616L3272.31 42.368C3275.35 42.368 3277.6 42.928 3279.07 44.048C3280.55 45.168 3281.28 46.816 3281.28 48.992C3281.28 51.2 3280.45 52.928 3278.79 54.176C3277.15 55.392 3274.64 56 3271.25 56H3259.01ZM3263.52 52.448H3270.91C3272.83 52.448 3274.27 52.16 3275.23 51.584C3276.19 50.976 3276.67 50.016 3276.67 48.704C3276.67 47.36 3276.23 46.384 3275.33 45.776C3274.47 45.136 3273.09 44.816 3271.2 44.816H3263.52V52.448ZM3263.52 41.504H3270.43C3272.19 41.504 3273.52 41.184 3274.42 40.544C3275.35 39.872 3275.81 38.944 3275.81 37.76C3275.81 36.544 3275.35 35.632 3274.42 35.024C3273.52 34.416 3272.19 34.112 3270.43 34.112H3263.52V41.504ZM3299.39 56.288C3296.83 56.288 3294.56 55.728 3292.58 54.608C3290.59 53.488 3289.02 51.952 3287.87 50C3286.72 48.016 3286.14 45.776 3286.14 43.28C3286.14 40.752 3286.72 38.512 3287.87 36.56C3289.02 34.608 3290.59 33.088 3292.58 32C3294.56 30.88 3296.83 30.32 3299.39 30.32C3301.92 30.32 3304.18 30.88 3306.16 32C3308.18 33.088 3309.74 34.608 3310.86 36.56C3312.02 38.48 3312.59 40.72 3312.59 43.28C3312.59 45.808 3312.02 48.048 3310.86 50C3309.74 51.952 3308.18 53.488 3306.16 54.608C3304.18 55.728 3301.92 56.288 3299.39 56.288ZM3299.39 52.256C3301.02 52.256 3302.48 51.888 3303.76 51.152C3305.07 50.416 3306.1 49.376 3306.83 48.032C3307.57 46.656 3307.94 45.072 3307.94 43.28C3307.94 41.456 3307.57 39.888 3306.83 38.576C3306.1 37.232 3305.07 36.192 3303.76 35.456C3302.48 34.72 3301.02 34.352 3299.39 34.352C3297.76 34.352 3296.3 34.72 3295.02 35.456C3293.74 36.192 3292.72 37.232 3291.95 38.576C3291.18 39.888 3290.8 41.456 3290.8 43.28C3290.8 45.072 3291.18 46.656 3291.95 48.032C3292.72 49.376 3293.74 50.416 3295.02 51.152C3296.3 51.888 3297.76 52.256 3299.39 52.256ZM3330.57 56.288C3327.85 56.288 3325.45 55.728 3323.37 54.608C3321.33 53.488 3319.73 51.952 3318.57 50C3317.45 48.048 3316.89 45.808 3316.89 43.28C3316.89 40.752 3317.44 38.512 3318.53 36.56C3319.65 34.608 3321.17 33.088 3323.09 32C3325.04 30.88 3327.23 30.32 3329.66 30.32C3332.13 30.32 3334.3 30.864 3336.19 31.952C3338.08 33.04 3339.55 34.576 3340.61 36.56C3341.69 38.512 3342.24 40.8 3342.24 43.424C3342.24 43.616 3342.22 43.84 3342.19 44.096C3342.19 44.352 3342.17 44.592 3342.14 44.816H3320.49V41.504H3339.74L3337.87 42.656C3337.9 41.024 3337.57 39.568 3336.86 38.288C3336.16 37.008 3335.18 36.016 3333.93 35.312C3332.72 34.576 3331.29 34.208 3329.66 34.208C3328.06 34.208 3326.64 34.576 3325.39 35.312C3324.14 36.016 3323.17 37.024 3322.46 38.336C3321.76 39.616 3321.41 41.088 3321.41 42.752V43.52C3321.41 45.216 3321.79 46.736 3322.56 48.08C3323.36 49.392 3324.46 50.416 3325.87 51.152C3327.28 51.888 3328.89 52.256 3330.72 52.256C3332.22 52.256 3333.58 52 3334.8 51.488C3336.05 50.976 3337.13 50.208 3338.06 49.184L3340.61 52.16C3339.45 53.504 3338.01 54.528 3336.29 55.232C3334.59 55.936 3332.69 56.288 3330.57 56.288ZM3349.39 56V30.56H3353.99V49.088L3369.59 30.56H3373.77V56H3369.16V37.472L3353.61 56H3349.39ZM3361.29 27.248C3358.95 27.248 3357.11 26.688 3355.77 25.568C3354.46 24.416 3353.79 22.768 3353.75 20.624H3356.87C3356.91 21.84 3357.31 22.8 3358.07 23.504C3358.87 24.208 3359.93 24.56 3361.24 24.56C3362.55 24.56 3363.61 24.208 3364.41 23.504C3365.21 22.8 3365.63 21.84 3365.66 20.624H3368.87C3368.84 22.768 3368.15 24.416 3366.81 25.568C3365.47 26.688 3363.63 27.248 3361.29 27.248ZM3395.6 56V30.56H3400.36L3411.3 49.376H3409.38L3420.61 30.56H3424.93V56H3420.76V35.744L3421.52 36.176L3411.25 53.12H3409.24L3398.92 35.84L3399.83 35.648V56H3395.6ZM3445.23 56.288C3442.51 56.288 3440.11 55.728 3438.03 54.608C3435.98 53.488 3434.38 51.952 3433.23 50C3432.11 48.048 3431.55 45.808 3431.55 43.28C3431.55 40.752 3432.09 38.512 3433.18 36.56C3434.3 34.608 3435.82 33.088 3437.74 32C3439.69 30.88 3441.89 30.32 3444.32 30.32C3446.78 30.32 3448.96 30.864 3450.85 31.952C3452.73 33.04 3454.21 34.576 3455.26 36.56C3456.35 38.512 3456.89 40.8 3456.89 43.424C3456.89 43.616 3456.88 43.84 3456.85 44.096C3456.85 44.352 3456.83 44.592 3456.8 44.816H3435.15V41.504H3454.4L3452.53 42.656C3452.56 41.024 3452.22 39.568 3451.52 38.288C3450.81 37.008 3449.84 36.016 3448.59 35.312C3447.37 34.576 3445.95 34.208 3444.32 34.208C3442.72 34.208 3441.29 34.576 3440.05 35.312C3438.8 36.016 3437.82 37.024 3437.12 38.336C3436.41 39.616 3436.06 41.088 3436.06 42.752V43.52C3436.06 45.216 3436.45 46.736 3437.21 48.08C3438.01 49.392 3439.12 50.416 3440.53 51.152C3441.93 51.888 3443.55 52.256 3445.37 52.256C3446.88 52.256 3448.24 52 3449.45 51.488C3450.7 50.976 3451.79 50.208 3452.72 49.184L3455.26 52.16C3454.11 53.504 3452.67 54.528 3450.94 55.232C3449.25 55.936 3447.34 56.288 3445.23 56.288ZM3480.07 45.584C3478.73 46.224 3477.34 46.736 3475.9 47.12C3474.49 47.472 3473.03 47.648 3471.53 47.648C3468.46 47.648 3466.03 46.928 3464.23 45.488C3462.47 44.048 3461.59 41.824 3461.59 38.816V30.56H3466.2V38.528C3466.2 40.352 3466.76 41.696 3467.88 42.56C3469.03 43.424 3470.57 43.856 3472.49 43.856C3473.71 43.856 3474.95 43.696 3476.23 43.376C3477.55 43.056 3478.83 42.608 3480.07 42.032V45.584ZM3479.74 56V30.56H3484.35V56H3479.74ZM3498.33 56V33.392L3499.48 34.592H3489.02V30.56H3512.25V34.592H3501.84L3502.94 33.392V56H3498.33ZM3542.12 56V30.56H3546.72V56H3542.12ZM3528.44 39.2C3531.67 39.232 3534.12 39.968 3535.78 41.408C3537.48 42.848 3538.32 44.88 3538.32 47.504C3538.32 50.256 3537.4 52.384 3535.54 53.888C3533.72 55.36 3531.09 56.08 3527.67 56.048L3516.96 56V30.56H3521.57V39.152L3528.44 39.2ZM3527.33 52.544C3529.38 52.576 3530.95 52.16 3532.04 51.296C3533.12 50.432 3533.67 49.152 3533.67 47.456C3533.67 45.792 3533.12 44.576 3532.04 43.808C3530.98 43.04 3529.41 42.64 3527.33 42.608L3521.57 42.512V52.496L3527.33 52.544Z" fill="#695CF0"/>
<path d="M3670.84 53.84V34.592H3659.8L3659.56 39.488C3659.5 41.088 3659.38 42.64 3659.22 44.144C3659.1 45.616 3658.87 46.976 3658.55 48.224C3658.26 49.472 3657.83 50.496 3657.26 51.296C3656.68 52.096 3655.91 52.592 3654.95 52.784L3650.39 51.968C3651.38 52 3652.18 51.68 3652.79 51.008C3653.4 50.304 3653.86 49.344 3654.18 48.128C3654.54 46.912 3654.79 45.536 3654.95 44C3655.11 42.432 3655.24 40.816 3655.34 39.152L3655.72 30.56H3675.45V53.84H3670.84ZM3649.38 61.904V51.968H3679.34V61.904H3675.02V56H3653.75V61.904H3649.38ZM3696.67 56.288C3693.95 56.288 3691.55 55.728 3689.47 54.608C3687.42 53.488 3685.82 51.952 3684.67 50C3683.55 48.048 3682.99 45.808 3682.99 43.28C3682.99 40.752 3683.53 38.512 3684.62 36.56C3685.74 34.608 3687.26 33.088 3689.18 32C3691.13 30.88 3693.32 30.32 3695.76 30.32C3698.22 30.32 3700.4 30.864 3702.28 31.952C3704.17 33.04 3705.64 34.576 3706.7 36.56C3707.79 38.512 3708.33 40.8 3708.33 43.424C3708.33 43.616 3708.32 43.84 3708.28 44.096C3708.28 44.352 3708.27 44.592 3708.24 44.816H3686.59V41.504H3705.84L3703.96 42.656C3704 41.024 3703.66 39.568 3702.96 38.288C3702.25 37.008 3701.28 36.016 3700.03 35.312C3698.81 34.576 3697.39 34.208 3695.76 34.208C3694.16 34.208 3692.73 34.576 3691.48 35.312C3690.24 36.016 3689.26 37.024 3688.56 38.336C3687.85 39.616 3687.5 41.088 3687.5 42.752V43.52C3687.5 45.216 3687.88 46.736 3688.65 48.08C3689.45 49.392 3690.56 50.416 3691.96 51.152C3693.37 51.888 3694.99 52.256 3696.81 52.256C3698.32 52.256 3699.68 52 3700.89 51.488C3702.14 50.976 3703.23 50.208 3704.16 49.184L3706.7 52.16C3705.55 53.504 3704.11 54.528 3702.38 55.232C3700.68 55.936 3698.78 56.288 3696.67 56.288ZM3726.57 56.288C3723.98 56.288 3721.66 55.728 3719.61 54.608C3717.59 53.488 3716.01 51.952 3714.86 50C3713.7 48.048 3713.13 45.808 3713.13 43.28C3713.13 40.752 3713.7 38.512 3714.86 36.56C3716.01 34.608 3717.59 33.088 3719.61 32C3721.66 30.88 3723.98 30.32 3726.57 30.32C3728.87 30.32 3730.92 30.784 3732.71 31.712C3734.54 32.608 3735.94 33.952 3736.94 35.744L3733.43 38C3732.6 36.752 3731.58 35.84 3730.36 35.264C3729.18 34.656 3727.9 34.352 3726.52 34.352C3724.86 34.352 3723.37 34.72 3722.06 35.456C3720.74 36.192 3719.7 37.232 3718.94 38.576C3718.17 39.888 3717.78 41.456 3717.78 43.28C3717.78 45.104 3718.17 46.688 3718.94 48.032C3719.7 49.376 3720.74 50.416 3722.06 51.152C3723.37 51.888 3724.86 52.256 3726.52 52.256C3727.9 52.256 3729.18 51.968 3730.36 51.392C3731.58 50.784 3732.6 49.856 3733.43 48.608L3736.94 50.816C3735.94 52.576 3734.54 53.936 3732.71 54.896C3730.92 55.824 3728.87 56.288 3726.57 56.288ZM3753.85 56.288C3751.13 56.288 3748.73 55.728 3746.65 54.608C3744.61 53.488 3743.01 51.952 3741.85 50C3740.73 48.048 3740.17 45.808 3740.17 43.28C3740.17 40.752 3740.72 38.512 3741.81 36.56C3742.93 34.608 3744.45 33.088 3746.37 32C3748.32 30.88 3750.51 30.32 3752.94 30.32C3755.41 30.32 3757.58 30.864 3759.47 31.952C3761.36 33.04 3762.83 34.576 3763.89 36.56C3764.97 38.512 3765.52 40.8 3765.52 43.424C3765.52 43.616 3765.5 43.84 3765.47 44.096C3765.47 44.352 3765.45 44.592 3765.42 44.816H3743.77V41.504H3763.02L3761.15 42.656C3761.18 41.024 3760.85 39.568 3760.14 38.288C3759.44 37.008 3758.46 36.016 3757.21 35.312C3756 34.576 3754.57 34.208 3752.94 34.208C3751.34 34.208 3749.92 34.576 3748.67 35.312C3747.42 36.016 3746.45 37.024 3745.74 38.336C3745.04 39.616 3744.69 41.088 3744.69 42.752V43.52C3744.69 45.216 3745.07 46.736 3745.84 48.08C3746.64 49.392 3747.74 50.416 3749.15 51.152C3750.56 51.888 3752.17 52.256 3754 52.256C3755.5 52.256 3756.86 52 3758.08 51.488C3759.33 50.976 3760.41 50.208 3761.34 49.184L3763.89 52.16C3762.73 53.504 3761.29 54.528 3759.57 55.232C3757.87 55.936 3755.97 56.288 3753.85 56.288ZM3786.16 56.288C3784.04 56.288 3782.11 55.808 3780.35 54.848C3778.62 53.856 3777.23 52.4 3776.17 50.48C3775.15 48.56 3774.64 46.16 3774.64 43.28C3774.64 40.4 3775.13 38 3776.12 36.08C3777.15 34.16 3778.52 32.72 3780.25 31.76C3782.01 30.8 3783.98 30.32 3786.16 30.32C3788.65 30.32 3790.86 30.864 3792.78 31.952C3794.7 33.04 3796.22 34.56 3797.34 36.512C3798.46 38.432 3799.02 40.688 3799.02 43.28C3799.02 45.872 3798.46 48.144 3797.34 50.096C3796.22 52.048 3794.7 53.568 3792.78 54.656C3790.86 55.744 3788.65 56.288 3786.16 56.288ZM3772.67 65.312V30.56H3777.08V37.424L3776.8 43.328L3777.28 49.232V65.312H3772.67ZM3785.77 52.256C3787.4 52.256 3788.86 51.888 3790.14 51.152C3791.45 50.416 3792.48 49.376 3793.21 48.032C3793.98 46.656 3794.36 45.072 3794.36 43.28C3794.36 41.456 3793.98 39.888 3793.21 38.576C3792.48 37.232 3791.45 36.192 3790.14 35.456C3788.86 34.72 3787.4 34.352 3785.77 34.352C3784.17 34.352 3782.72 34.72 3781.4 35.456C3780.12 36.192 3779.1 37.232 3778.33 38.576C3777.6 39.888 3777.23 41.456 3777.23 43.28C3777.23 45.072 3777.6 46.656 3778.33 48.032C3779.1 49.376 3780.12 50.416 3781.4 51.152C3782.72 51.888 3784.17 52.256 3785.77 52.256ZM3809.82 56V33.392L3810.97 34.592H3800.5V30.56H3823.74V34.592H3813.32L3814.42 33.392V56H3809.82ZM3846.38 56V33.392L3847.53 34.592H3837.07V30.56H3860.3V34.592H3849.88L3850.99 33.392V56H3846.38ZM3865.01 56V30.56H3876.82C3879.79 30.56 3882.13 31.136 3883.83 32.288C3885.55 33.408 3886.42 35.008 3886.42 37.088C3886.42 39.168 3885.6 40.784 3883.97 41.936C3882.37 43.056 3880.24 43.616 3877.59 43.616L3878.31 42.368C3881.35 42.368 3883.6 42.928 3885.07 44.048C3886.55 45.168 3887.28 46.816 3887.28 48.992C3887.28 51.2 3886.45 52.928 3884.79 54.176C3883.15 55.392 3880.64 56 3877.25 56H3865.01ZM3869.52 52.448H3876.91C3878.83 52.448 3880.27 52.16 3881.23 51.584C3882.19 50.976 3882.67 50.016 3882.67 48.704C3882.67 47.36 3882.23 46.384 3881.33 45.776C3880.47 45.136 3879.09 44.816 3877.2 44.816H3869.52V52.448ZM3869.52 41.504H3876.43C3878.19 41.504 3879.52 41.184 3880.42 40.544C3881.35 39.872 3881.81 38.944 3881.81 37.76C3881.81 36.544 3881.35 35.632 3880.42 35.024C3879.52 34.416 3878.19 34.112 3876.43 34.112H3869.52V41.504ZM3905.39 56.288C3902.83 56.288 3900.56 55.728 3898.58 54.608C3896.59 53.488 3895.02 51.952 3893.87 50C3892.72 48.016 3892.14 45.776 3892.14 43.28C3892.14 40.752 3892.72 38.512 3893.87 36.56C3895.02 34.608 3896.59 33.088 3898.58 32C3900.56 30.88 3902.83 30.32 3905.39 30.32C3907.92 30.32 3910.18 30.88 3912.16 32C3914.18 33.088 3915.74 34.608 3916.86 36.56C3918.02 38.48 3918.59 40.72 3918.59 43.28C3918.59 45.808 3918.02 48.048 3916.86 50C3915.74 51.952 3914.18 53.488 3912.16 54.608C3910.18 55.728 3907.92 56.288 3905.39 56.288ZM3905.39 52.256C3907.02 52.256 3908.48 51.888 3909.76 51.152C3911.07 50.416 3912.1 49.376 3912.83 48.032C3913.57 46.656 3913.94 45.072 3913.94 43.28C3913.94 41.456 3913.57 39.888 3912.83 38.576C3912.1 37.232 3911.07 36.192 3909.76 35.456C3908.48 34.72 3907.02 34.352 3905.39 34.352C3903.76 34.352 3902.3 34.72 3901.02 35.456C3899.74 36.192 3898.72 37.232 3897.95 38.576C3897.18 39.888 3896.8 41.456 3896.8 43.28C3896.8 45.072 3897.18 46.656 3897.95 48.032C3898.72 49.376 3899.74 50.416 3901.02 51.152C3902.3 51.888 3903.76 52.256 3905.39 52.256ZM3936.57 56.288C3933.85 56.288 3931.45 55.728 3929.37 54.608C3927.33 53.488 3925.73 51.952 3924.57 50C3923.45 48.048 3922.89 45.808 3922.89 43.28C3922.89 40.752 3923.44 38.512 3924.53 36.56C3925.65 34.608 3927.17 33.088 3929.09 32C3931.04 30.88 3933.23 30.32 3935.66 30.32C3938.13 30.32 3940.3 30.864 3942.19 31.952C3944.08 33.04 3945.55 34.576 3946.61 36.56C3947.69 38.512 3948.24 40.8 3948.24 43.424C3948.24 43.616 3948.22 43.84 3948.19 44.096C3948.19 44.352 3948.17 44.592 3948.14 44.816H3926.49V41.504H3945.74L3943.87 42.656C3943.9 41.024 3943.57 39.568 3942.86 38.288C3942.16 37.008 3941.18 36.016 3939.93 35.312C3938.72 34.576 3937.29 34.208 3935.66 34.208C3934.06 34.208 3932.64 34.576 3931.39 35.312C3930.14 36.016 3929.17 37.024 3928.46 38.336C3927.76 39.616 3927.41 41.088 3927.41 42.752V43.52C3927.41 45.216 3927.79 46.736 3928.56 48.08C3929.36 49.392 3930.46 50.416 3931.87 51.152C3933.28 51.888 3934.89 52.256 3936.72 52.256C3938.22 52.256 3939.58 52 3940.8 51.488C3942.05 50.976 3943.13 50.208 3944.06 49.184L3946.61 52.16C3945.45 53.504 3944.01 54.528 3942.29 55.232C3940.59 55.936 3938.69 56.288 3936.57 56.288ZM3955.39 56V30.56H3959.99V49.088L3975.59 30.56H3979.77V56H3975.16V37.472L3959.61 56H3955.39ZM3967.29 27.248C3964.95 27.248 3963.11 26.688 3961.77 25.568C3960.46 24.416 3959.79 22.768 3959.75 20.624H3962.87C3962.91 21.84 3963.31 22.8 3964.07 23.504C3964.87 24.208 3965.93 24.56 3967.24 24.56C3968.55 24.56 3969.61 24.208 3970.41 23.504C3971.21 22.8 3971.63 21.84 3971.66 20.624H3974.87C3974.84 22.768 3974.15 24.416 3972.81 25.568C3971.47 26.688 3969.63 27.248 3967.29 27.248ZM4001.6 56V30.56H4006.36L4017.3 49.376H4015.38L4026.61 30.56H4030.93V56H4026.76V35.744L4027.52 36.176L4017.25 53.12H4015.24L4004.92 35.84L4005.83 35.648V56H4001.6ZM4051.23 56.288C4048.51 56.288 4046.11 55.728 4044.03 54.608C4041.98 53.488 4040.38 51.952 4039.23 50C4038.11 48.048 4037.55 45.808 4037.55 43.28C4037.55 40.752 4038.09 38.512 4039.18 36.56C4040.3 34.608 4041.82 33.088 4043.74 32C4045.69 30.88 4047.89 30.32 4050.32 30.32C4052.78 30.32 4054.96 30.864 4056.85 31.952C4058.73 33.04 4060.21 34.576 4061.26 36.56C4062.35 38.512 4062.89 40.8 4062.89 43.424C4062.89 43.616 4062.88 43.84 4062.85 44.096C4062.85 44.352 4062.83 44.592 4062.8 44.816H4041.15V41.504H4060.4L4058.53 42.656C4058.56 41.024 4058.22 39.568 4057.52 38.288C4056.81 37.008 4055.84 36.016 4054.59 35.312C4053.37 34.576 4051.95 34.208 4050.32 34.208C4048.72 34.208 4047.29 34.576 4046.05 35.312C4044.8 36.016 4043.82 37.024 4043.12 38.336C4042.41 39.616 4042.06 41.088 4042.06 42.752V43.52C4042.06 45.216 4042.45 46.736 4043.21 48.08C4044.01 49.392 4045.12 50.416 4046.53 51.152C4047.93 51.888 4049.55 52.256 4051.37 52.256C4052.88 52.256 4054.24 52 4055.45 51.488C4056.7 50.976 4057.79 50.208 4058.72 49.184L4061.26 52.16C4060.11 53.504 4058.67 54.528 4056.94 55.232C4055.25 55.936 4053.34 56.288 4051.23 56.288ZM4086.07 45.584C4084.73 46.224 4083.34 46.736 4081.9 47.12C4080.49 47.472 4079.03 47.648 4077.53 47.648C4074.46 47.648 4072.03 46.928 4070.23 45.488C4068.47 44.048 4067.59 41.824 4067.59 38.816V30.56H4072.2V38.528C4072.2 40.352 4072.76 41.696 4073.88 42.56C4075.03 43.424 4076.57 43.856 4078.49 43.856C4079.71 43.856 4080.95 43.696 4082.23 43.376C4083.55 43.056 4084.83 42.608 4086.07 42.032V45.584ZM4085.74 56V30.56H4090.35V56H4085.74ZM4104.33 56V33.392L4105.48 34.592H4095.02V30.56H4118.25V34.592H4107.84L4108.94 33.392V56H4104.33ZM4148.12 56V30.56H4152.72V56H4148.12ZM4134.44 39.2C4137.67 39.232 4140.12 39.968 4141.78 41.408C4143.48 42.848 4144.32 44.88 4144.32 47.504C4144.32 50.256 4143.4 52.384 4141.54 53.888C4139.72 55.36 4137.09 56.08 4133.67 56.048L4122.96 56V30.56H4127.57V39.152L4134.44 39.2ZM4133.33 52.544C4135.38 52.576 4136.95 52.16 4138.04 51.296C4139.12 50.432 4139.67 49.152 4139.67 47.456C4139.67 45.792 4139.12 44.576 4138.04 43.808C4136.98 43.04 4135.41 42.64 4133.33 42.608L4127.57 42.512V52.496L4133.33 52.544Z" fill="#695CF0"/>
<path d="M3600.29 5L3611.8 27.7688L3634.57 39.2842L3609.98 48.9812L3600.29 73.5684L3590.59 48.9812L3566 39.2842L3588.77 27.7688L3600.29 5Z" fill="#AA0019"/>
<path d="M4206.29 5L4217.8 27.7688L4240.57 39.2842L4215.98 48.9812L4206.29 73.5684L4196.59 48.9812L4172 39.2842L4194.77 27.7688L4206.29 5Z" fill="#AA0019"/>
</svg>
