<svg width="944" height="260" viewBox="0 0 944 260" fill="none" xmlns="http://www.w3.org/2000/svg">
<path d="M0 254.735V103.476C17.56 93.2019 31.37 89.0659 53.3 89.0659C99.7 89.0659 116.93 121.661 117.27 162.824C117.58 195.387 117.58 222.139 117.27 254.735H84.98C85.29 225.575 85.29 198.155 84.98 168.995C84.65 134.704 75.56 123.718 57.39 123.718C46.72 123.718 37.33 126.126 31.99 129.889V254.735H0ZM144.52 89.0549C153.45 89.1972 174.13 89.5802 189.23 104.855C202.5 118.291 207.35 139.135 207.55 162.813C207.86 195.376 207.86 222.128 207.55 254.724H175.26C175.57 225.564 175.57 198.144 175.26 168.984C175.04 147.517 171.25 134.791 163.5 128.544C158.39 124.419 151.39 124.058 147.67 123.707C139.76 122.974 133.33 124.681 129.47 126.071C127.92 120.83 125.22 113.783 120.41 106.518C117.48 102.097 114.44 98.5961 111.73 95.9045C118.7 92.797 130.17 88.8252 144.53 89.044L144.52 89.0549Z" fill="#AA0019"/>
<path d="M567.539 254.734V103.476C585.099 93.2014 598.909 89.0655 620.839 89.0655C667.239 89.0655 684.469 121.661 684.809 162.824C685.119 195.386 685.119 222.139 684.809 254.734H652.519C652.829 225.575 652.829 198.155 652.519 168.995C652.189 134.703 643.099 123.718 624.929 123.718C614.259 123.718 604.869 126.125 599.529 129.889V254.734H567.549H567.539ZM712.059 89.0655C720.989 89.2077 741.669 89.5907 756.769 104.865C770.039 118.302 774.889 139.146 775.089 162.824C775.399 195.386 775.399 222.139 775.089 254.734H742.799C743.109 225.575 743.109 198.155 742.799 168.995C742.579 147.527 738.789 134.802 731.039 128.554C725.929 124.429 718.929 124.068 715.209 123.718C707.299 122.985 700.869 124.692 697.009 126.081C695.459 120.84 692.759 113.794 687.949 106.528C685.019 102.108 681.979 98.6067 679.269 95.915C686.239 92.8076 697.709 88.8357 712.069 89.0545L712.059 89.0655Z" fill="#AA0019"/>
<path d="M363.45 88.4967V239.755C346.22 250.029 325.52 254.165 305.46 254.165C247.47 254.165 228.66 221.57 228.35 181.436C228.04 148.84 228.04 121.081 228.35 88.4857H260.95C260.64 117.645 260.64 145.065 260.95 174.225C261.28 207.488 273.51 219.502 301.71 219.502C315.19 219.502 326.16 216.767 331.17 212.992V88.4857H363.46L363.45 88.4967Z" fill="#AA0019"/>
<path d="M475.2 3.81826L467.36 35.7353C462.66 34.3348 459.86 34.0065 455.77 34.0065C441.35 34.0065 439.79 46.7099 439.79 63.4945V95.7507H488.06C488.37 82.7082 488.7 65.5625 488.7 50.4738C488.7 15.1648 507.82 0.415382 533.83 0.743634C540.42 0.743634 546.36 1.77216 554.53 3.81826L547.94 35.7353C542.91 34.3348 540.1 34.0065 536.33 34.0065C521.91 34.0065 520.35 46.7099 520.35 63.4945V95.7507H548.56V127.307H520.05V256.955H488.07V127.307H439.47V256.955H407.82V127.307H381.17C381.12 116.934 381.06 106.55 381.01 96.1775C389.95 96.0352 398.88 95.893 407.82 95.7507C408.13 82.7082 408.13 65.5625 408.46 50.4738C408.45 15.1648 427.24 0.415382 453.27 0.743634C459.86 0.743634 466.75 1.77216 475.2 3.81826Z" fill="#AA0019"/>
<path d="M870.301 259.45C823.591 259.45 793.801 222.751 793.801 173.678C793.801 124.604 823.281 88.2666 868.741 88.2666C914.201 88.2666 943.961 123.597 943.961 173.678C943.961 177.814 943.961 181.249 943.651 185.353H826.081C828.911 211.405 846.141 226.855 870.291 226.855C885.961 226.855 902.271 219.316 911.361 207.641L931.421 231.658C918.561 249.504 893.491 259.45 870.291 259.45H870.301ZM910.431 158.261C907.601 135.973 890.371 120.862 868.751 120.862C847.131 120.862 829.881 135.973 827.041 158.261H910.431Z" fill="#AA0019"/>
</svg>
