<svg width="100" height="126" viewBox="0 0 100 126" fill="none" xmlns="http://www.w3.org/2000/svg">
<path d="M44.652 125.741C37.6888 126.213 30.9967 124.997 24.9891 122.055C6.01773 112.764 -4.43799 86.7549 3.4651 68.551C4.63587 65.8519 11.1259 52.3002 23.7842 50.6159C28.6559 49.9835 32.5029 51.3253 33.7664 51.7778C37.8216 53.2134 40.9354 55.566 43.2859 58.1168C48.0568 47.4175 54.2381 37.4793 61.7349 28.4504C69.5163 19.0834 78.5918 10.875 88.7378 4.05496L93.3549 0.939606L99.5701 10.2093L94.9529 13.3247C85.6905 19.5632 77.3988 27.0507 70.2995 35.6036C61.2126 46.5366 54.2547 58.9573 49.5822 72.5026L39.031 72.3967C38.6042 71.0869 36.1734 64.4536 30.0817 62.2951C29.3729 62.0372 27.4905 61.3776 25.2523 61.6689C19.6679 62.4092 15.3479 69.136 13.6679 72.9961C8.66224 84.5365 15.1322 104.803 29.853 112.014C42.7127 118.316 56.4538 111.829 61.7628 108.748C71.9766 102.821 77.8064 94.608 78.1226 89.8825C78.4784 84.4314 75.506 79.4395 75.3686 79.2194C73.2507 75.8738 70.3536 73.9168 68.2967 72.8499L63.3524 70.2945C63.6219 68.9269 64.1303 67.1123 65.123 65.132C66.1967 63.0074 67.4562 61.4389 68.4363 60.3895C70.0831 61.2366 71.7338 62.0978 73.3806 62.9449C78.0768 65.3719 82.0151 68.9383 84.7521 73.251L84.724 73.2589C86.4682 75.9184 89.7197 82.8847 89.2123 90.6132C88.5997 100.135 80.0044 111.037 67.3402 118.394C59.8423 122.755 52.081 125.199 44.6301 125.716L44.652 125.741Z" fill="#AA0019"/>
</svg>
